<svg xmlns="http://www.w3.org/2000/svg" width="701" height="362" viewBox="0 0 701 362" version="1.1"><path d="" stroke="none" fill="#84a4bc" fill-rule="evenodd"/><path d="M 313.474 4.041 C 313.096 4.654, 310.602 4.892, 307.415 4.618 C 304.437 4.363, 302 4.512, 302 4.949 C 302 5.386, 299.188 5.722, 295.750 5.694 C 285.544 5.614, 276 7.668, 276 9.944 C 276 10.490, 275.388 10.702, 274.640 10.415 C 273.892 10.128, 271.980 10.984, 270.390 12.317 C 268.153 14.193, 266.980 14.547, 265.198 13.883 C 263.931 13.411, 261.367 13.221, 259.498 13.461 C 256.788 13.808, 255.977 13.502, 255.483 11.948 C 254.467 8.745, 252.477 9.717, 249.915 14.670 C 248.587 17.238, 246.600 19.825, 245.500 20.417 C 240.996 22.844, 236.999 26.189, 237.545 27.073 C 237.865 27.591, 237.424 28.719, 236.564 29.579 C 235.616 30.527, 235 32.888, 235 35.571 C 235 39.385, 234.459 40.541, 231.102 43.898 C 228.958 46.042, 225.852 48.093, 224.199 48.456 C 222.159 48.904, 220.810 50.045, 219.996 52.009 C 219.337 53.601, 217.757 55.584, 216.486 56.417 C 215.214 57.251, 213.862 59.410, 213.481 61.216 C 213.101 63.022, 211.783 65.625, 210.554 67 C 209.325 68.375, 207.704 71.075, 206.952 73 C 206.200 74.925, 205.003 77.095, 204.292 77.821 C 202.205 79.955, 202.720 81.867, 205.250 81.378 C 207.396 80.964, 207.390 80.992, 205.112 81.991 C 202.858 82.979, 202.818 83.141, 204.402 84.892 C 205.325 85.911, 206.058 88.265, 206.031 90.123 C 206.004 91.980, 206.265 95.221, 206.609 97.325 C 207.222 101.060, 206.029 105.235, 202.352 112.223 C 201.130 114.544, 201.122 115.282, 202.295 117.223 C 203.052 118.475, 203.578 121.075, 203.464 123 C 203.249 126.631, 204.581 129.377, 206.102 128.437 C 206.583 128.140, 206.673 128.707, 206.301 129.698 C 205.708 131.281, 205.830 131.333, 207.313 130.128 C 208.750 128.958, 209 128.969, 209 130.196 C 209 130.988, 210.537 133.364, 212.415 135.475 C 214.293 137.586, 216.318 140.368, 216.915 141.657 C 217.512 142.946, 218.563 145.238, 219.250 146.750 C 220.753 150.057, 221.593 150.953, 225.500 153.420 C 227.150 154.462, 228.865 155.928, 229.311 156.678 C 229.758 157.428, 230.477 157.823, 230.911 157.555 C 231.344 157.287, 232.252 158.102, 232.928 159.365 C 234.450 162.209, 239.664 165.455, 243 165.635 C 244.375 165.709, 246.850 164.996, 248.500 164.051 C 251.859 162.127, 262.198 161.892, 265.370 163.667 C 266.812 164.474, 268.232 164.187, 271.568 162.413 C 273.948 161.147, 276.707 159.974, 277.698 159.806 C 278.689 159.638, 280.257 158.820, 281.182 157.989 C 282.172 157.100, 285.272 156.358, 288.710 156.188 C 293.893 155.931, 294.830 156.190, 296.972 158.471 C 298.302 159.885, 299.490 161.731, 299.613 162.571 C 300.051 165.554, 302.238 167.158, 304.926 166.467 C 306.342 166.104, 308.593 165.601, 309.930 165.351 C 311.266 165.101, 312.759 164.649, 313.247 164.347 C 313.735 164.046, 314.382 164.744, 314.684 165.899 C 314.986 167.055, 315.579 168, 316.002 168 C 316.424 168, 317.464 169.059, 318.313 170.354 C 319.836 172.680, 319.553 176.274, 317.442 181.424 C 316.785 183.024, 316.976 183.234, 318.576 182.671 C 320.398 182.031, 320.394 182.077, 318.505 183.537 C 316.793 184.860, 316.722 185.213, 318.005 186.024 C 318.827 186.544, 319.047 186.976, 318.494 186.985 C 317.941 186.993, 316.904 188.320, 316.190 189.933 C 315.054 192.499, 315.143 193.345, 316.899 196.683 C 318.003 198.783, 320.695 202.453, 322.882 204.840 C 327.042 209.382, 330.035 214.738, 330.439 218.363 C 330.570 219.538, 331.579 222.536, 332.682 225.024 C 334.198 228.444, 334.426 229.963, 333.615 231.249 C 332.826 232.499, 332.920 233.817, 333.969 236.225 C 336.393 241.789, 335.880 248.046, 332.726 251.396 C 331.227 252.989, 329.963 255.014, 329.918 255.896 C 329.757 259.029, 328.874 263.369, 328.080 264.923 C 327.637 265.790, 327.204 268.881, 327.117 271.792 C 326.993 275.996, 327.650 278.462, 330.314 283.792 C 336.862 296.890, 337.826 299.580, 338.456 306.500 C 339.855 321.857, 340.900 325.406, 345.441 330.206 C 346.848 331.695, 348 334.031, 348 335.397 C 348 336.764, 348.457 338.165, 349.016 338.510 C 349.575 338.856, 349.810 339.499, 349.537 339.940 C 349.265 340.381, 349.886 341.716, 350.918 342.906 C 352.847 345.130, 352.683 348.788, 350.588 350.269 C 349.854 350.788, 350.064 351.470, 351.234 352.368 C 352.188 353.099, 352.771 353.896, 352.529 354.138 C 352.287 354.380, 353.124 355.876, 354.389 357.463 C 356.674 360.329, 356.719 360.339, 361.594 359.018 C 364.292 358.288, 366.950 357.412, 367.500 357.073 C 368.050 356.733, 370.300 356.526, 372.500 356.612 C 374.700 356.697, 379.574 356.088, 383.331 355.256 C 389.540 353.882, 390.725 353.188, 396.356 347.622 C 402.896 341.158, 407 336.419, 407 335.331 C 407 334.971, 408.688 333.175, 410.750 331.339 C 412.813 329.503, 414.151 328.001, 413.724 328.001 C 413.298 328, 413.576 326.762, 414.343 325.250 C 415.109 323.738, 415.666 320.925, 415.581 319 C 415.402 315.003, 417.572 312.472, 422.013 311.497 C 425.305 310.774, 427.134 308.894, 427.626 305.729 C 427.817 304.503, 428.269 302.196, 428.631 300.601 C 429.001 298.974, 428.897 297.945, 428.395 298.255 C 427.903 298.558, 427.372 296.992, 427.216 294.775 C 427.060 292.557, 426.511 289.954, 425.995 288.990 C 425.274 287.643, 425.628 286.808, 427.528 285.381 C 428.888 284.361, 430 282.957, 430 282.263 C 430 281.568, 430.824 281, 431.831 281 C 432.838 281, 434.223 279.951, 434.909 278.670 C 435.595 277.388, 439.159 274.727, 442.828 272.756 C 446.498 270.786, 449.383 268.672, 449.241 268.059 C 449.098 267.446, 449.658 266.685, 450.485 266.367 C 451.312 266.050, 451.740 265.388, 451.435 264.895 C 451.131 264.403, 451.407 264, 452.048 264 C 452.689 264, 452.955 263.325, 452.638 262.500 C 452.322 261.675, 452.525 261, 453.090 261 C 453.656 261, 453.870 260.598, 453.566 260.108 C 453.263 259.617, 452.969 254.797, 452.912 249.398 C 452.837 242.295, 452.426 239.293, 451.423 238.540 C 450.661 237.968, 449.894 236.600, 449.720 235.500 C 449.545 234.400, 448.859 232.512, 448.194 231.303 C 447.180 229.458, 447.268 228.941, 448.743 228.072 C 450.186 227.222, 450.253 226.874, 449.122 226.130 C 448.364 225.632, 448.045 224.736, 448.413 224.140 C 448.782 223.544, 448.352 221.941, 447.459 220.577 C 446.403 218.966, 446.089 217.293, 446.561 215.799 C 448.362 210.104, 453.380 201.123, 457.020 197.080 C 459.209 194.649, 461 192.284, 461 191.823 C 461 190.622, 474.168 177.455, 475.096 177.728 C 476.543 178.155, 486.570 165.522, 489.166 160 C 490.588 156.975, 493.157 151.568, 494.876 147.984 C 496.594 144.399, 498 140.462, 498 139.234 C 498 138.005, 498.359 137, 498.799 137 C 499.238 137, 499.576 135.225, 499.549 133.055 C 499.513 130.166, 499.031 128.986, 497.750 128.648 C 496.788 128.395, 496 128.565, 496 129.026 C 496 129.936, 492.701 131.242, 489.500 131.599 C 488.400 131.721, 486.150 132.081, 484.500 132.398 C 482.850 132.716, 479.925 133.260, 478 133.609 C 476.075 133.958, 473.778 134.875, 472.895 135.646 C 470.829 137.450, 468.985 136.700, 466.540 133.060 C 465.461 131.455, 464.111 130.401, 463.540 130.718 C 462.968 131.034, 463.063 130.687, 463.750 129.947 C 464.438 129.206, 465 127.934, 465 127.120 C 465 125.483, 452.463 113, 450.819 113 C 450.251 113, 450.040 112.339, 450.349 111.532 C 450.659 110.725, 450.471 109.791, 449.932 109.458 C 449.392 109.124, 449.015 109.222, 449.094 109.676 C 449.172 110.129, 449.159 111.175, 449.064 112 C 448.887 113.532, 445.122 105.061, 444.430 101.576 C 444.220 100.518, 442.462 98.156, 440.524 96.328 C 438.586 94.500, 436.952 92.216, 436.894 91.252 C 436.437 83.722, 434.940 79.464, 431.386 75.584 C 428.993 72.972, 428.112 71.221, 428.530 69.904 C 428.863 68.857, 428.723 68, 428.219 68 C 427.716 68, 425.182 63.838, 422.588 58.750 C 419.995 53.663, 417.039 48.375, 416.019 47 C 414.999 45.625, 413.890 43.375, 413.553 42 C 413.217 40.625, 414.060 41.582, 415.427 44.126 C 417.905 48.738, 420.420 50.747, 421.510 48.983 C 422.650 47.139, 423.039 40.456, 422.121 38.500 C 421.604 37.400, 420.947 35.756, 420.659 34.847 C 420.255 33.568, 418.938 33.215, 414.819 33.283 C 411.622 33.335, 409.581 32.955, 409.702 32.328 C 409.814 31.755, 408.846 31.402, 407.552 31.544 C 404.052 31.928, 401 33.032, 401 33.913 C 401 34.341, 399.762 34.580, 398.250 34.445 C 396.738 34.309, 395.500 34.119, 395.500 34.023 C 395.500 33.715, 387.378 31.844, 384.833 31.566 C 383.917 31.465, 382.566 30.885, 381.832 30.276 C 381.098 29.666, 379.007 28.998, 377.185 28.790 C 375.363 28.582, 373.564 27.943, 373.186 27.370 C 371.464 24.757, 368.671 24.234, 364.333 25.712 C 361.949 26.524, 360.231 27.565, 360.516 28.025 C 360.800 28.485, 360.574 29.145, 360.014 29.492 C 359.368 29.891, 359.332 30.752, 359.916 31.843 C 360.565 33.055, 360.313 34.259, 359.067 35.911 L 357.297 38.258 352.711 35.571 C 350.189 34.093, 347.535 33.004, 346.813 33.152 C 344.838 33.555, 341 31.130, 341 29.478 C 341 27.543, 334.212 24.766, 330.706 25.267 C 329.169 25.487, 327.680 25.292, 327.397 24.833 C 327.114 24.375, 326.061 24, 325.058 24 C 324.037 24, 322.988 23.061, 322.676 21.870 C 322.310 20.469, 321.596 19.941, 320.592 20.326 C 318.286 21.211, 317.581 19.121, 319.478 17.025 C 321.668 14.605, 322.014 11.871, 320.342 10.199 C 319.219 9.076, 319.245 8.612, 320.500 7.357 C 322.592 5.265, 322.370 4.090, 320 4.710 C 318.882 5.003, 318 4.741, 318 4.117 C 318 2.707, 314.337 2.646, 313.474 4.041 M 423.500 186.559 C 422.950 186.705, 421.244 187.103, 419.709 187.442 C 418.174 187.781, 417.164 188.457, 417.465 188.944 C 417.766 189.431, 417.540 189.987, 416.962 190.179 C 416.384 190.372, 415.727 192.388, 415.501 194.660 C 415.144 198.248, 415.379 198.868, 417.295 199.381 C 421.465 200.499, 422.908 200.116, 422.500 198 C 422.288 196.900, 422.504 196, 422.980 196 C 423.456 196, 424.360 194.439, 424.990 192.531 C 426.135 189.061, 425.386 186.058, 423.500 186.559 M 403.862 210.250 C 403.609 212.313, 403.649 214, 403.951 214 C 404.253 214.001, 404.589 215.621, 404.697 217.602 C 404.806 219.582, 405.579 221.720, 406.415 222.351 C 407.251 222.983, 408.689 225.300, 409.610 227.500 C 410.532 229.700, 411.489 230.922, 411.737 230.216 C 411.986 229.510, 411.705 228.350, 411.114 227.638 C 410.523 226.926, 409.873 225.478, 409.670 224.422 C 409 220.938, 407.807 219.001, 406.738 219.662 C 406.071 220.074, 405.890 219.529, 406.244 218.176 C 406.551 217, 406.245 213.892, 405.562 211.269 L 404.322 206.500 403.862 210.250 M 424.662 237.250 C 425.180 239.381, 425.319 243.045, 425.051 247.500 C 424.748 252.547, 427.277 258.565, 429.202 257.375 C 429.954 256.910, 429.831 256.347, 428.813 255.597 C 427.771 254.830, 427.335 252.695, 427.363 248.500 C 427.410 241.462, 426.285 235, 425.012 235 C 424.519 235, 424.361 236.012, 424.662 237.250" stroke="none" fill="#FF00FF" fill-rule="evenodd"/></svg>