<svg xmlns="http://www.w3.org/2000/svg" width="582" height="300" viewBox="0 0 582 300" version="1.1"><path d="M 253.030 230.550 C 253.057 233.136, 253.193 233.272, 254.134 231.654 C 254.903 230.330, 254.895 229.495, 254.104 228.704 C 253.299 227.899, 253.008 228.399, 253.030 230.550" stroke="none" fill="#84a4bc" fill-rule="evenodd"/><path d="M 309.091 1.873 C 308.316 2.391, 307.113 2.597, 306.417 2.330 C 305.722 2.063, 304.653 2.780, 304.042 3.922 C 303.430 5.065, 303.170 6.056, 303.465 6.125 C 303.759 6.194, 304.337 6.322, 304.750 6.410 C 307.393 6.976, 310.031 9.270, 309.246 10.320 C 307.909 12.107, 307.850 17.114, 309.147 18.678 C 310.889 20.777, 307.367 22.934, 303.281 22.271 L 300.010 21.740 300.580 26.587 C 301.287 32.593, 301.716 33.308, 304.220 32.653 C 305.317 32.366, 307.291 32.540, 308.607 33.041 C 310.232 33.659, 311 33.597, 311 32.850 C 311 30.995, 316.918 32.766, 321.173 35.895 L 325.115 38.795 319.964 38.734 C 315.277 38.679, 314.512 39.004, 311.458 42.337 C 309.612 44.352, 307.404 46, 306.551 46 C 305.698 46, 305 46.465, 305 47.032 C 305 49.017, 300.655 49.754, 297.275 48.342 C 294.153 47.037, 294 47.076, 294 49.172 C 294 50.382, 294.978 52.413, 296.174 53.686 C 297.370 54.958, 297.832 56, 297.200 56 C 296.568 56, 295.353 57.350, 294.500 59 C 293.060 61.785, 292.552 62, 287.419 62 C 281.788 62, 273 65.084, 273 67.060 C 273 67.680, 272.131 67.602, 270.750 66.857 C 269.512 66.190, 267.600 65.547, 266.500 65.428 C 262.551 64.999, 258.539 63.862, 257.274 62.813 C 256.143 61.874, 246.976 61.028, 234.500 60.710 C 232.300 60.654, 230.140 60.021, 229.700 59.304 C 229.260 58.587, 228.248 58, 227.450 58 C 226.653 58, 226 57.425, 226 56.722 C 226 53.637, 216.582 49.298, 207 47.970 C 199.639 46.950, 198.021 46.182, 197.885 43.643 C 197.821 42.464, 197.709 40.990, 197.635 40.368 C 197.362 38.075, 189.694 32.160, 185.659 31.130 C 183.372 30.546, 180.282 28.928, 178.794 27.534 C 176.298 25.198, 171.843 24.007, 172.118 25.750 C 172.444 27.813, 171.853 29, 170.500 29 C 169.675 29, 169 29.845, 169 30.878 C 169 31.910, 169.675 33.315, 170.500 34 C 172.162 35.380, 172.582 37.478, 171 36.500 C 170.450 36.160, 170 36.254, 170 36.708 C 170 37.652, 164.338 37.517, 161.828 36.514 C 160.402 35.944, 160.181 36.499, 160.328 40.271 C 160.422 42.704, 161.129 45.453, 161.899 46.380 C 163.172 47.912, 163.068 47.976, 160.749 47.095 C 158.013 46.054, 151 47.588, 151 49.227 C 151 49.717, 151.453 49.838, 152.007 49.496 C 152.561 49.153, 153.313 49.689, 153.677 50.687 C 154.042 51.684, 155.120 53.518, 156.073 54.762 C 157.027 56.006, 157.585 57.872, 157.313 58.910 C 157.042 59.947, 157.330 61.748, 157.953 62.912 C 158.576 64.076, 158.729 64.927, 158.293 64.802 C 157.167 64.480, 152.811 66.947, 150.789 69.052 C 149.806 70.075, 148.251 70.617, 147.135 70.325 C 145.798 69.975, 144.995 70.440, 144.558 71.816 C 143.896 73.903, 141 75.655, 141 73.969 C 141 72.380, 137.984 72.868, 135.442 74.867 C 134.136 75.894, 133.248 76.915, 133.469 77.135 C 133.798 77.465, 134.554 81.142, 134.918 84.188 C 134.963 84.567, 136.184 84.792, 137.631 84.688 C 139.519 84.553, 140.347 85.031, 140.562 86.381 C 140.727 87.415, 141.343 88.743, 141.931 89.331 C 143.440 90.840, 143.260 91.801, 141.397 92.177 C 140.373 92.383, 140.918 92.921, 142.904 93.666 C 144.705 94.341, 145.757 94.415, 145.402 93.842 C 145.066 93.298, 145.738 93.444, 146.895 94.167 C 148.053 94.890, 149.056 95.823, 149.125 96.241 C 149.194 96.658, 149.306 97.563, 149.375 98.250 C 149.444 98.938, 149.950 99.511, 150.500 99.525 C 151.050 99.539, 152.902 100.185, 154.617 100.960 C 157.661 102.337, 157.690 102.416, 155.901 104.337 C 153.905 106.480, 147.598 107.361, 144.811 105.888 C 142.343 104.583, 141.785 106.260, 143.034 111.222 C 143.833 114.395, 145.063 116.190, 147.656 117.967 C 150.720 120.066, 150.980 120.542, 149.611 121.543 C 148.742 122.178, 148.356 123.023, 148.753 123.419 C 149.888 124.555, 149.621 127.372, 148.241 128.831 C 147.548 129.562, 147.239 130.578, 147.554 131.088 C 147.869 131.597, 147.451 132.274, 146.624 132.591 C 145.798 132.908, 144.834 134.479, 144.482 136.084 C 144.129 137.688, 143.451 139, 142.975 139 C 142.499 139, 141.514 140.238, 140.786 141.750 C 139.817 143.761, 138.661 144.542, 136.481 144.658 C 134.841 144.745, 132.938 144.858, 132.250 144.908 C 131.563 144.959, 131 145.637, 131 146.417 C 131 147.196, 130.485 148.005, 129.857 148.214 C 129.007 148.498, 129.020 149.169, 129.907 150.826 C 130.563 152.052, 131.497 152.811, 131.982 152.511 C 132.467 152.211, 133.007 153.211, 133.182 154.733 C 133.357 156.255, 133.878 157.275, 134.341 157 C 134.804 156.725, 135.906 157.850, 136.790 159.500 C 138.936 163.503, 139.166 165.278, 137.455 164.621 C 136.690 164.328, 135.790 164.532, 135.454 165.074 C 135.113 165.626, 133.335 165.778, 131.422 165.419 C 129.312 165.023, 128 165.175, 128 165.815 C 128 166.386, 127.326 166.999, 126.501 167.177 C 125.383 167.418, 125.799 168.349, 128.142 170.847 C 130.713 173.586, 131.801 174.090, 134.141 173.622 C 135.722 173.306, 137 173.486, 137 174.025 C 137 174.924, 135.568 175.406, 133.750 175.118 C 133.338 175.053, 133 175.436, 133 175.969 C 133 176.501, 132.212 176.640, 131.250 176.278 C 128.891 175.389, 135.666 183.114, 138.563 184.617 C 141.949 186.374, 147.350 183.529, 146.565 180.403 C 146.250 179.149, 146.444 177.843, 146.996 177.502 C 147.801 177.005, 148.491 179.274, 147.831 180.250 C 147.738 180.387, 148.275 181.625, 149.025 183 C 149.774 184.375, 150.276 186.646, 150.140 188.047 C 149.771 191.838, 155.676 211.911, 158.355 215.971 C 159.636 217.912, 161.490 221.975, 162.476 225 C 163.462 228.025, 165.769 233.088, 167.603 236.250 C 169.437 239.412, 170.716 242, 170.446 242 C 170.175 242, 170.691 243.125, 171.592 244.500 C 172.493 245.875, 172.947 247, 172.602 247 C 171.472 247, 174.977 254.261, 176.761 255.616 C 179.495 257.692, 180.994 257.243, 182.387 253.932 C 183.096 252.245, 183.974 250.895, 184.338 250.932 C 186.419 251.146, 186.838 250.679, 187.439 247.472 C 187.803 245.532, 188.496 244.188, 188.979 244.487 C 190.183 245.231, 191.315 241.316, 190.345 239.759 C 189.403 238.245, 189.842 233.929, 191.095 232.400 C 191.930 231.381, 191.810 229.367, 190.490 222.250 C 189.123 214.879, 189.498 212.706, 192 213.500 C 193.842 214.085, 194.505 213.230, 194.123 210.763 C 194.060 210.357, 194.991 210.132, 196.193 210.263 C 197.611 210.417, 198.787 209.700, 199.546 208.219 C 200.189 206.964, 201.435 205.164, 202.315 204.219 C 203.195 203.274, 205.187 201.150, 206.742 199.500 C 208.297 197.850, 210.106 195.262, 210.763 193.750 C 211.784 191.399, 213.783 190.334, 215.457 191.250 C 216.491 191.815, 218.939 187.308, 218.968 184.785 C 219.003 181.801, 222.113 179.446, 224.705 180.440 C 225.574 180.774, 226.890 180.258, 227.701 179.267 C 228.497 178.295, 228.863 178.063, 228.515 178.750 C 228.110 179.550, 228.623 180, 229.941 180 C 231.073 180, 232 179.530, 232 178.956 C 232 178.382, 232.563 177.985, 233.250 178.075 C 236.631 178.514, 239 177.865, 239 176.500 C 239 173.479, 240.832 175.137, 243.485 180.559 C 246.470 186.660, 249.939 190.891, 251.508 190.345 C 252.062 190.153, 253.108 190.943, 253.832 192.102 C 254.555 193.261, 254.664 193.911, 254.074 193.546 C 251.994 192.260, 253.030 194.236, 255.423 196.118 C 257.402 197.675, 259.652 202.828, 259.300 205 C 259.256 205.275, 258.939 206.850, 258.597 208.500 C 258.063 211.077, 258.357 211.676, 260.687 212.750 C 262.178 213.437, 263.711 214, 264.094 214 C 265.634 214, 271.479 207.617, 271.183 206.258 C 271.004 205.431, 271.329 205.085, 271.933 205.459 C 272.520 205.821, 273 206.766, 273 207.559 C 273 208.352, 273.352 209, 273.782 209 C 274.212 209, 275.139 211.137, 275.842 213.750 C 276.546 216.362, 278.316 220.975, 279.777 224 C 281.238 227.025, 282.605 230.175, 282.814 231 C 283.501 233.704, 283.548 246.429, 282.883 249.701 C 282.525 251.462, 282.584 254.387, 283.014 256.201 C 283.444 258.016, 283.841 258.621, 283.898 257.547 C 283.999 255.609, 284.012 255.609, 285.497 257.547 C 291.641 265.563, 292.794 266.873, 293.280 266.387 C 294.434 265.233, 297.922 268.039, 297.311 269.631 C 296.813 270.929, 297.151 271.093, 299.099 270.503 C 300.419 270.103, 301.877 269.427, 302.337 269.001 C 303.516 267.909, 299.928 264, 297.746 264 C 296.751 264, 295.679 263.328, 295.364 262.506 C 295.048 261.684, 294.500 261.190, 294.145 261.408 C 293.790 261.627, 293.399 260.420, 293.277 258.728 C 293.154 257.036, 292.530 255.327, 291.890 254.932 C 291.250 254.536, 290.943 253.081, 291.207 251.698 C 291.557 249.866, 291.319 249.324, 290.331 249.703 C 287.787 250.679, 286.165 248.203, 286.980 244.588 C 287.396 242.745, 288.047 240.733, 288.427 240.118 C 288.807 239.503, 288.572 239, 287.904 239 C 287.059 239, 287.144 238.468, 288.184 237.250 C 289.006 236.287, 289.775 233.488, 289.893 231.030 C 290.141 225.845, 290.192 225.753, 292.328 226.572 C 293.216 226.913, 293.843 228.112, 293.721 229.237 C 293.550 230.819, 294.180 231.374, 296.500 231.686 C 298.150 231.909, 300.082 232.858, 300.793 233.795 C 301.504 234.733, 302.292 235.387, 302.543 235.250 C 303.523 234.714, 304.990 235.038, 304.802 235.750 C 304.693 236.162, 304.941 237.490, 305.353 238.699 C 305.863 240.196, 306.620 240.699, 307.725 240.275 C 308.959 239.802, 309.187 240.071, 308.676 241.401 C 308.269 242.462, 308.670 243.807, 309.697 244.824 C 311.279 246.392, 311.347 246.391, 310.751 244.816 C 310.287 243.589, 310.622 243.171, 311.988 243.274 C 313.018 243.352, 313.639 243.775, 313.367 244.215 C 313.096 244.654, 313.464 245.241, 314.187 245.518 C 315.044 245.847, 315.435 247.582, 315.312 250.511 C 315.121 255.063, 316.368 256.567, 317.466 253.108 C 317.796 252.067, 318.997 250.973, 320.134 250.675 C 321.461 250.328, 321.928 249.692, 321.437 248.897 C 320.903 248.034, 321.175 247.853, 322.336 248.299 C 323.403 248.708, 324.045 248.411, 324.125 247.469 C 324.194 246.661, 324.306 245.488, 324.375 244.861 C 324.444 244.235, 325.703 243.595, 327.173 243.438 C 328.643 243.281, 331.207 241.940, 332.871 240.457 C 335.270 238.320, 335.842 237.066, 335.632 234.403 C 335.487 232.555, 335.730 230.922, 336.173 230.772 C 337.093 230.461, 333.912 219.676, 332.750 219.165 C 332.331 218.980, 332.223 218.449, 332.510 217.984 C 332.797 217.519, 331.900 215.916, 330.516 214.423 C 329.132 212.930, 328 211.297, 328 210.795 C 328 210.293, 327.573 210.146, 327.050 210.469 C 326.528 210.792, 325.612 210.143, 325.015 209.028 C 324.418 207.913, 323.244 207, 322.406 207 C 321.568 207, 321.160 206.550, 321.500 206 C 321.840 205.450, 321.447 205, 320.626 205 C 319.806 205, 318.819 203.988, 318.432 202.750 C 318.046 201.512, 316.648 199.408, 315.324 198.073 C 313.406 196.137, 313.054 195.024, 313.585 192.573 C 313.951 190.883, 314.584 189.275, 314.991 189 C 315.398 188.725, 316.046 187.487, 316.433 186.250 C 316.819 185.012, 317.794 184, 318.599 184 C 319.404 184, 320.322 183.325, 320.638 182.500 C 320.955 181.675, 321.803 181, 322.524 181 C 323.244 181, 324.003 180.490, 324.211 179.866 C 324.459 179.122, 325.151 179.294, 326.220 180.363 C 327.117 181.260, 328.505 181.744, 329.303 181.437 C 330.344 181.038, 330.944 181.888, 331.423 184.440 C 331.891 186.938, 332.622 188, 333.872 188 C 335.283 188, 335.562 187.375, 335.213 185 C 334.857 182.569, 335.132 182, 336.664 182 C 337.704 182, 339.496 181.341, 340.646 180.535 C 341.796 179.730, 342.982 179.316, 343.282 179.615 C 344.260 180.593, 349.114 176.740, 348.598 175.395 C 348.212 174.390, 348.666 174.303, 350.548 175.018 C 352.171 175.635, 353 175.601, 353 174.916 C 353 174.347, 353.500 174.191, 354.112 174.569 C 354.723 174.947, 355.616 174.636, 356.096 173.878 C 356.782 172.796, 356.973 172.782, 356.985 173.809 C 356.994 174.612, 357.483 174.811, 358.250 174.324 C 359.451 173.562, 359.942 173.400, 361.883 173.125 C 362.369 173.056, 363.002 172.100, 363.290 171 C 363.577 169.900, 364.530 169, 365.406 169 C 366.283 169, 367 168.325, 367 167.500 C 367 166.675, 367.450 166, 368 166 C 368.550 166, 368.888 165.654, 368.750 165.230 C 368.613 164.807, 369.738 163.124, 371.250 161.490 C 372.762 159.857, 374 157.481, 374 156.211 C 374 154.940, 374.693 152.560, 375.541 150.921 C 376.388 149.282, 376.834 147.541, 376.532 147.051 C 376.229 146.562, 376.766 145.377, 377.725 144.418 C 379.711 142.432, 379.994 140.156, 378.516 138.058 C 377.764 136.991, 377.825 136.811, 378.750 137.367 C 380.344 138.325, 380.380 136.780, 378.800 135.200 C 377.867 134.267, 377.867 134, 378.800 134 C 379.460 134, 380 133.502, 380 132.893 C 380 132.284, 379.339 132.040, 378.532 132.349 C 377.725 132.659, 376.774 132.443, 376.419 131.869 C 376.064 131.295, 374.813 131.067, 373.637 131.362 C 371.750 131.836, 371.821 131.619, 374.243 129.504 C 375.756 128.182, 376.540 126.834, 375.993 126.495 C 375.447 126.158, 375 125.173, 375 124.306 C 375 123.439, 373.762 121.652, 372.250 120.336 C 370.738 119.020, 369.050 117.542, 368.500 117.051 C 367.950 116.561, 366.179 114.328, 364.565 112.088 C 362.950 109.849, 360.700 107.733, 359.565 107.386 C 355.180 106.046, 354.920 105.092, 357.530 99.940 C 360.029 95.010, 362.474 92.902, 364.750 93.718 C 365.500 93.988, 366 93.311, 366 92.024 C 366 90.846, 365.580 90.142, 365.066 90.459 C 364.553 90.776, 362.206 90.372, 359.851 89.561 C 355.882 88.193, 355.443 88.221, 353.845 89.936 C 352.896 90.954, 352.334 92.001, 352.595 92.261 C 352.856 92.522, 352.023 92.536, 350.745 92.292 C 349.385 92.032, 347.883 90.632, 347.124 88.918 C 346.411 87.307, 345.510 86.185, 345.123 86.424 C 343.759 87.267, 338 83.729, 338 82.048 C 338 80.726, 338.669 80.445, 341 80.787 C 343.720 81.186, 344 80.967, 344 78.447 C 344 76.918, 344.292 75.958, 344.648 76.315 C 345.543 77.210, 349.094 72.960, 348.395 71.831 C 347.723 70.743, 353.078 71.872, 354.423 73.102 C 354.983 73.614, 354.884 74.958, 354.173 76.520 C 352.645 79.874, 352.693 80.332, 354.500 79.638 C 356.301 78.947, 356.466 80.134, 354.800 81.800 C 353.867 82.733, 353.965 83, 355.243 83 C 356.147 83, 357.527 82.086, 358.309 80.969 C 359.887 78.716, 365.664 76.670, 367.392 77.751 C 368.002 78.132, 369.121 78.538, 369.881 78.653 C 372.188 79.002, 373.311 80.756, 373.223 83.873 C 373.134 86.986, 374.468 88.090, 379 88.655 C 380.375 88.826, 382.063 89.049, 382.750 89.150 C 383.438 89.251, 384 89.896, 384 90.583 C 384 91.271, 384.563 92.060, 385.250 92.338 C 385.997 92.639, 385.795 92.874, 384.750 92.921 C 382.319 93.031, 382.556 94.651, 385.101 95.316 C 386.267 95.621, 386.906 96.343, 386.537 96.940 C 386.172 97.531, 386.485 98.249, 387.232 98.536 C 388.149 98.887, 388.454 100.234, 388.171 102.665 C 387.881 105.146, 388.097 106.058, 388.863 105.585 C 389.562 105.152, 389.762 105.456, 389.401 106.398 C 388.583 108.529, 393.903 108.039, 396.439 105.750 C 397.505 104.788, 399.192 104, 400.189 104 C 401.535 104, 402 103.229, 402 101 C 402 99.350, 401.550 98, 401 98 C 400.450 98, 400 97.350, 400 96.555 C 400 94.401, 390.206 84.192, 386.414 82.392 C 382.100 80.345, 381.748 78.133, 385.196 74.741 C 388.286 71.701, 388.509 70.819, 386.931 67.870 C 386.144 66.400, 386.193 65.473, 387.116 64.360 C 388.132 63.136, 388.098 62.672, 386.936 61.924 C 385.820 61.206, 385.777 60.821, 386.742 60.196 C 388.229 59.233, 385.244 52.661, 382.308 50.435 C 381.063 49.490, 380.922 49.054, 381.857 49.032 C 382.626 49.014, 382.973 48.372, 382.658 47.551 C 382.334 46.706, 382.602 46.254, 383.301 46.467 C 383.960 46.668, 385.729 47.102, 387.231 47.431 C 389.731 47.978, 389.891 47.837, 389.124 45.764 C 388.664 44.519, 388.477 42.962, 388.708 42.305 C 388.940 41.648, 388.560 40.073, 387.864 38.805 C 387.168 37.537, 386.534 35.506, 386.456 34.291 C 386.377 33.076, 385.738 31.389, 385.034 30.541 C 383.554 28.758, 381 28.483, 381 30.107 C 381 30.716, 380.308 30.948, 379.462 30.624 C 378.587 30.288, 377.679 30.673, 377.355 31.517 C 376.619 33.436, 371.120 33.405, 368.559 31.468 C 367.491 30.661, 366.989 30, 367.444 30 C 368.589 30, 364.040 26.692, 361 25.314 C 357.012 23.507, 354.709 22.796, 351.500 22.382 C 349.850 22.170, 348.050 21.425, 347.500 20.727 C 345.397 18.059, 328.688 5, 327.377 5 C 326.620 5, 326 4.475, 326 3.833 C 326 3.192, 325.729 2.938, 325.397 3.269 C 325.066 3.601, 323.603 3.412, 322.147 2.849 C 318.271 1.350, 310.718 0.786, 309.091 1.873 M 331.525 189.733 C 329.073 190.354, 327.136 192.892, 327.541 194.949 C 327.709 195.802, 327.881 196.849, 327.923 197.275 C 327.966 197.701, 329.206 198.508, 330.679 199.068 C 332.838 199.889, 333.706 199.738, 335.148 198.293 C 336.133 197.307, 337.078 195.600, 337.248 194.500 C 337.419 193.400, 337.880 191.985, 338.273 191.355 C 339.465 189.446, 335.970 188.606, 331.525 189.733 M 253.918 231.750 C 253.873 232.162, 253.627 233.777, 253.372 235.337 C 253.117 236.898, 253.281 237.945, 253.736 237.663 C 254.639 237.105, 255.354 231, 254.516 231 C 254.232 231, 253.963 231.338, 253.918 231.750 M 192.686 247.813 C 192.789 248.029, 192.403 249.397, 191.829 250.853 C 190.405 254.463, 190.538 264.738, 192.030 266.537 C 192.698 267.341, 192.852 268.014, 192.372 268.030 C 191.893 268.047, 192.277 268.514, 193.228 269.068 C 195.614 270.458, 200.588 267.779, 201.364 264.684 C 201.913 262.499, 199.375 255.621, 196.909 252.611 C 194.900 250.158, 192.511 247.443, 192.686 247.813" stroke="none" fill="#00FFFF" fill-rule="evenodd"/></svg>