<svg xmlns="http://www.w3.org/2000/svg" width="323" height="300" viewBox="0 0 323 300" version="1.1"><path d="M 206 49.031 C 206 49.564, 206.675 50, 207.500 50 C 208.325 50, 209 49.823, 209 49.607 C 209 49.391, 208.325 48.955, 207.500 48.638 C 206.675 48.322, 206 48.499, 206 49.031 M 126.195 51.500 C 126.215 53.150, 126.439 53.704, 126.693 52.731 C 126.947 51.758, 126.930 50.408, 126.656 49.731 C 126.382 49.054, 126.175 49.850, 126.195 51.500 M 98 187.089 C 96.339 188.448, 96.172 188.787, 97.500 188.101 C 100.762 186.415, 102.570 185.030, 101.500 185.038 C 100.950 185.041, 99.375 185.965, 98 187.089 M 199.100 205.705 C 199.829 206.917, 200.640 207.694, 200.903 207.431 C 201.166 207.168, 200.570 206.176, 199.579 205.226 C 197.857 203.577, 197.835 203.598, 199.100 205.705 M 220 239.902 C 220 240.940, 221.902 242.443, 222.466 241.850 C 222.649 241.658, 222.169 240.920, 221.399 240.211 C 220.630 239.501, 220 239.362, 220 239.902" stroke="none" fill="#84a4bc" fill-rule="evenodd"/><path d="M 230.747 2.443 C 229.786 3.146, 228.997 4.571, 228.994 5.610 C 228.990 6.650, 228.392 8.642, 227.664 10.037 C 226.935 11.432, 226.431 13.682, 226.544 15.037 C 226.656 16.392, 226.479 17.950, 226.152 18.500 C 225.179 20.134, 224.951 22.043, 224.601 31.500 C 224.417 36.450, 223.942 42.075, 223.544 44 C 222.663 48.264, 219.047 55.149, 217 56.461 C 213.736 58.553, 212.788 58.236, 207.344 53.234 C 205.988 51.988, 204.118 50.850, 203.189 50.705 C 202.260 50.561, 200.938 50.091, 200.250 49.662 C 199.563 49.233, 199 49.168, 199 49.518 C 199 49.868, 197.612 48.766, 195.916 47.070 C 194.220 45.374, 192.417 44.243, 191.909 44.556 C 191.401 44.870, 190.706 44.397, 190.364 43.506 C 190.022 42.614, 189.125 42.122, 188.371 42.411 C 187.617 42.700, 187 42.501, 187 41.969 C 187 41.436, 186.325 41, 185.500 41 C 184.675 41, 184 40.587, 184 40.082 C 184 39.576, 182.425 38.190, 180.500 37 C 177.232 34.980, 175.742 32, 178 32 C 178.550 32, 179 31.380, 179 30.622 C 179 29.865, 179.666 28.693, 180.479 28.017 C 181.538 27.138, 181.686 26.282, 181 25 C 179.987 23.107, 180.915 21.876, 184.250 20.687 C 185.213 20.344, 186 19.429, 186 18.654 C 186 17.879, 186.675 16.685, 187.500 16 C 189.125 14.651, 189.598 12.512, 188.061 13.462 C 187.545 13.781, 186.653 13.245, 186.080 12.271 C 185.192 10.763, 184.895 10.716, 184.084 11.952 C 183.561 12.751, 183.354 13.763, 183.625 14.202 C 183.896 14.641, 183.746 15, 183.291 15 C 182.836 15, 181.769 13.856, 180.921 12.457 L 179.378 9.915 176.799 11.943 C 174.605 13.669, 174.046 13.760, 173.046 12.555 C 172.400 11.777, 170.921 11.323, 169.760 11.546 C 168.598 11.770, 167.165 11.576, 166.574 11.114 C 165.983 10.653, 164.208 9.967, 162.629 9.589 C 161.050 9.211, 159.101 8.244, 158.299 7.441 C 157.496 6.639, 156.425 6.237, 155.919 6.550 C 155.414 6.862, 155 6.165, 155 5 C 155 3.820, 154.550 3.160, 153.984 3.510 C 153.425 3.856, 153.176 4.476, 153.431 4.888 C 153.686 5.301, 152.456 5.503, 150.697 5.338 L 147.500 5.038 151.250 6.655 C 155.108 8.318, 155.940 10.012, 153.750 11.743 C 151.805 13.281, 146.710 13.915, 144.746 12.864 C 143.440 12.165, 142.814 12.322, 142.378 13.457 C 142.052 14.306, 141.388 15, 140.901 15 C 139.341 15, 135.047 19.267, 135.640 20.227 C 135.955 20.737, 135.265 22.036, 134.106 23.116 C 132.948 24.195, 132 25.478, 132 25.968 C 132 26.457, 131.264 27.593, 130.364 28.493 C 129.144 29.714, 129.017 30.417, 129.864 31.264 C 130.489 31.889, 130.964 33.322, 130.921 34.450 C 130.878 35.577, 130.614 35.935, 130.336 35.244 C 130.057 34.553, 129.455 34.219, 128.999 34.501 C 128.542 34.783, 127.094 34.606, 125.781 34.107 C 124.324 33.553, 122.734 33.569, 121.697 34.149 C 120.547 34.793, 120 34.739, 120 33.983 C 120 32.380, 112.925 25.928, 111.878 26.576 C 111.395 26.874, 111 26.572, 111 25.904 C 111 25.171, 110.166 25.444, 108.892 26.595 C 107.733 27.643, 105.933 28.359, 104.892 28.187 C 103.518 27.960, 103 28.472, 103 30.060 C 103 31.697, 102.686 31.984, 101.747 31.205 C 100.873 30.480, 100.019 30.518, 98.922 31.333 C 96.639 33.028, 93.765 37.726, 94.700 38.236 C 95.140 38.476, 94.938 38.535, 94.250 38.367 C 90.882 37.547, 88.028 42.176, 91.241 43.247 C 92.171 43.557, 92.109 44.016, 90.991 45.080 C 89.296 46.694, 86 47.228, 86 45.889 C 86 44.267, 84.241 44.969, 83.768 46.780 C 83.512 47.758, 83.953 49.167, 84.749 49.910 C 85.583 50.690, 85.794 51.523, 85.248 51.881 C 84.726 52.221, 84.078 53.175, 83.808 54 C 83.486 54.981, 82.531 53.968, 81.047 51.072 C 78.994 47.066, 78.677 46.828, 77.716 48.572 C 77.132 49.633, 75.887 51.050, 74.949 51.721 C 72.914 53.179, 72.048 56.899, 73.089 59.712 C 73.669 61.279, 73.174 62.235, 70.920 63.901 C 69.314 65.088, 68 66.651, 68 67.374 C 68 69.305, 63.712 73.966, 61.452 74.490 C 60.379 74.740, 57.524 75.423, 55.110 76.008 C 52.695 76.594, 50.220 76.890, 49.610 76.667 C 48.999 76.444, 47.825 76.801, 47 77.461 C 44.677 79.319, 35.838 82.483, 32.500 82.651 C 30.850 82.734, 28.965 82.846, 28.312 82.901 C 27.658 82.955, 25.701 84.299, 23.962 85.888 C 22.223 87.476, 19.058 89.613, 16.928 90.638 C 14.560 91.777, 12.560 93.665, 11.781 95.500 L 10.507 98.500 9.970 95 L 9.433 91.500 7.706 94.721 C 6.756 96.492, 6.060 99.642, 6.158 101.721 C 6.257 103.799, 5.812 106.767, 5.169 108.315 C 3.759 111.710, 3.682 114.432, 4.928 116.764 C 6.113 118.980, 9.578 126.962, 10.348 129.250 C 11.369 132.282, 8.570 131.184, 7.160 128 C 6.430 126.350, 5.420 125, 4.916 125 C 3.387 125, 3.892 127.021, 5.584 127.671 C 6.859 128.160, 6.908 128.443, 5.834 129.124 C 4.835 129.757, 4.814 129.973, 5.750 129.985 C 6.438 129.993, 7 130.675, 7 131.500 C 7 133.493, 6.010 133.397, 4.442 131.252 C 3.739 130.290, 2.874 129.792, 2.521 130.146 C 2.168 130.499, 2.919 131.848, 4.191 133.144 C 6.859 135.862, 9 140.248, 9 142.994 C 9 144.709, 12.727 152.625, 14.838 155.395 C 15.301 156.003, 15.789 158.975, 15.922 162 C 16.078 165.562, 17.199 169.743, 19.102 173.864 C 22.432 181.075, 22.550 182.056, 21.140 190.856 C 19.989 198.044, 19.604 198.746, 17.686 197.154 C 16.582 196.238, 16.298 196.693, 16.191 199.546 C 16.080 202.483, 16.511 203.268, 18.779 204.264 C 20.276 204.920, 21.860 206.030, 22.300 206.729 C 23.778 209.079, 28.459 210.705, 34.334 210.908 C 39.346 211.081, 40.681 210.718, 43.812 208.330 C 45.816 206.801, 48.129 205.452, 48.951 205.331 C 49.773 205.210, 50.944 204.429, 51.554 203.595 C 53.327 201.171, 57.512 200.046, 64.755 200.048 C 68.465 200.049, 72.850 200.052, 74.500 200.056 C 84.329 200.080, 83.815 200.254, 86.506 195.990 C 87.919 193.753, 90.213 191.489, 91.605 190.960 C 92.998 190.431, 95.568 188.911, 97.318 187.583 C 99.783 185.712, 102.077 185.072, 107.500 184.741 C 115.757 184.237, 117.893 183.740, 123.851 180.940 C 126.614 179.641, 130.840 178.726, 134.911 178.545 C 138.535 178.384, 141.725 178.144, 142 178.011 C 142.907 177.573, 146.490 178.193, 147 178.876 C 148.429 180.790, 152.800 182.741, 154 182 C 154.791 181.511, 156.218 181.752, 157.498 182.591 C 158.687 183.370, 159.926 183.741, 160.251 183.415 C 161.433 182.233, 167.029 187.334, 166.472 189.087 C 165.868 190.992, 168.378 194, 170.571 194 C 171.357 194, 172 194.845, 172 195.878 C 172 196.910, 172.631 198.279, 173.402 198.919 C 174.800 200.079, 176.507 204.733, 176.129 206.355 C 175.826 207.658, 178.070 210, 179.622 210 C 180.380 210, 181 209.155, 181 208.122 C 181 207.090, 181.675 205.685, 182.500 205 C 183.325 204.315, 184.012 203.248, 184.027 202.628 C 184.042 202.007, 185.729 200.459, 187.777 199.187 C 189.825 197.915, 192.175 195.440, 193 193.687 C 193.825 191.934, 194.950 190.567, 195.500 190.648 C 196.915 190.858, 196.098 197.186, 194.413 199.075 C 193.639 199.941, 192.946 201.966, 192.873 203.575 C 192.657 208.287, 191.914 210.181, 190.492 209.635 C 189.424 209.225, 188 210.858, 188 212.493 C 188 212.795, 190.821 212.418, 192 211.958 C 192.275 211.851, 192.909 211.840, 193.408 211.934 C 194.693 212.176, 195.967 209.889, 195.985 207.309 C 196.005 204.340, 197.841 203.412, 199.805 205.376 C 201.204 206.776, 201.254 207.603, 200.177 211.629 C 198.753 216.953, 199.011 217.600, 201.935 216.035 C 203.093 215.415, 204.482 215.180, 205.021 215.513 C 205.559 215.846, 206 215.566, 206 214.892 C 206 214.218, 206.289 213.956, 206.643 214.309 C 206.996 214.663, 206.716 215.638, 206.020 216.476 C 205.228 217.430, 205.154 218, 205.821 218 C 206.407 218, 208 219.868, 209.361 222.150 C 211.167 225.178, 211.613 226.888, 211.011 228.472 C 210.386 230.115, 210.909 231.721, 213.158 235.071 C 216.060 239.393, 220 242.123, 220 239.812 C 220 239.194, 221.013 239.867, 222.250 241.308 C 223.865 243.187, 224.915 243.671, 225.967 243.021 C 226.871 242.462, 227.908 242.509, 228.673 243.143 C 229.355 243.709, 230.351 243.901, 230.887 243.570 C 231.423 243.238, 232.137 243.413, 232.473 243.957 C 232.810 244.501, 234.641 245.685, 236.543 246.588 C 239.786 248.126, 240.174 248.117, 242.751 246.438 C 244.263 245.452, 246.758 243.306, 248.296 241.669 C 250.194 239.647, 251.418 239.018, 252.110 239.710 C 252.801 240.401, 252.624 241.233, 251.557 242.301 C 249.807 244.050, 250.948 245.341, 253.410 244.396 C 254.284 244.061, 255 244.284, 255 244.893 C 255 245.502, 255.620 246, 256.378 246 C 257.135 246, 258.320 246.681, 259.010 247.512 C 259.911 248.598, 260.622 248.729, 261.531 247.975 C 262.227 247.397, 263.785 246.734, 264.993 246.501 C 266.201 246.269, 268.672 244.507, 270.484 242.586 C 273.900 238.964, 275.270 238.429, 283.271 237.598 C 289.065 236.995, 291.352 234.922, 291.512 230.126 C 291.715 224.061, 293.102 218.712, 295.612 214.322 C 296.925 212.024, 298 209.317, 298 208.307 C 298 207.297, 298.913 204.767, 300.028 202.686 C 301.144 200.604, 301.793 198.473, 301.469 197.951 C 301.146 197.428, 301.359 197, 301.941 197 C 302.523 197, 303 196.290, 303 195.422 C 303 194.553, 304.840 192.075, 307.090 189.914 C 309.339 187.753, 311.276 185.426, 311.394 184.742 C 311.512 184.059, 312.343 182.115, 313.241 180.423 C 314.138 178.731, 315.128 175.131, 315.440 172.423 C 315.753 169.715, 316.277 166.375, 316.606 165 C 316.935 163.625, 317.334 161.325, 317.493 159.888 C 317.652 158.452, 318.221 156.427, 318.758 155.388 C 319.974 153.037, 320.163 147, 319.021 147 C 318.556 147, 318.298 145.888, 318.447 144.528 C 318.597 143.168, 318.369 142.272, 317.941 142.537 C 315.914 143.789, 315.127 128.134, 316.942 122.658 C 317.874 119.847, 317.919 118.519, 317.108 117.708 C 316.297 116.897, 315.966 117.056, 315.875 118.300 C 315.806 119.235, 315.637 120.450, 315.500 121 C 315.363 121.550, 315.194 122.295, 315.125 122.655 C 314.903 123.816, 311 119.737, 311 118.345 C 311 117.605, 310.540 117, 309.979 117 C 309.417 117, 308.440 115.864, 307.807 114.476 C 307.175 113.088, 305.605 111.688, 304.320 111.365 C 302.931 111.017, 301.730 109.771, 301.359 108.294 C 300.962 106.711, 300.471 106.238, 300.007 106.989 C 298.861 108.842, 297.627 105.428, 297.171 99.143 C 297.053 97.513, 296.546 96.960, 295.526 97.351 C 294.715 97.663, 293.600 97.149, 293.045 96.208 C 292.167 94.721, 291.910 94.693, 291.060 95.992 C 289.765 97.970, 288.652 96.605, 287.090 91.122 C 286.404 88.713, 284.766 85.582, 283.450 84.163 C 281.961 82.557, 281.456 81.336, 282.113 80.930 C 283.271 80.214, 278.519 76, 276.554 76 C 275.907 76, 274.505 75.198, 273.439 74.217 C 272.372 73.237, 269.819 71.644, 267.764 70.677 C 264.170 68.986, 261.219 65.447, 262.410 64.256 C 262.725 63.942, 262.430 63.018, 261.755 62.205 C 261.080 61.391, 260.493 59.325, 260.452 57.613 C 260.348 53.338, 259.798 51.824, 257.698 50.033 C 256.707 49.189, 255.713 46.923, 255.489 44.999 C 254.504 36.526, 253.926 34.426, 252.267 33.284 C 251.295 32.615, 249.907 31.556, 249.181 30.931 C 248.456 30.305, 246.736 30.008, 245.359 30.272 C 242.466 30.825, 241.587 29.235, 240.692 21.839 C 240.382 19.276, 239.650 16.238, 239.064 15.089 C 236.624 10.299, 236.222 9.289, 235.563 6.286 C 234.648 2.120, 232.994 0.800, 230.747 2.443 M 136.035 6.934 C 134.504 9.796, 134.672 10, 138.566 10 C 142.814 10, 146 8.488, 146 6.471 C 146 5, 143.542 4.907, 141.319 6.295 C 140.670 6.701, 139.856 6.575, 139.510 6.016 C 138.540 4.446, 137.174 4.807, 136.035 6.934 M 184.775 25.558 C 183.996 26.337, 185.054 30, 186.058 30 C 187.389 30, 188.054 28.305, 187.396 26.590 C 186.772 24.962, 185.767 24.566, 184.775 25.558 M 207 48 C 207 48.550, 207.675 49, 208.500 49 C 209.325 49, 210 48.550, 210 48 C 210 47.450, 209.325 47, 208.500 47 C 207.675 47, 207 47.450, 207 48 M 126.195 51.500 C 126.215 53.150, 126.439 53.704, 126.693 52.731 C 126.947 51.758, 126.930 50.408, 126.656 49.731 C 126.382 49.054, 126.175 49.850, 126.195 51.500 M 0.015 124.691 C 0.024 125.136, 0.467 126.175, 1 127 C 1.835 128.293, 1.971 128.266, 1.985 126.809 C 1.993 125.879, 1.550 124.840, 1 124.500 C 0.450 124.160, 0.007 124.246, 0.015 124.691 M 317.625 137.798 C 317.354 138.237, 317.545 139.249, 318.051 140.048 C 318.768 141.182, 318.973 141.007, 318.985 139.250 C 319 136.937, 318.492 136.394, 317.625 137.798 M 187.443 217.418 C 186.376 218.198, 185.755 219.088, 186.062 219.395 C 187.679 221.013, 198 219.821, 198 218.017 C 198 217.300, 193.209 216, 190.566 216 C 189.915 216, 188.509 216.638, 187.443 217.418 M 262 249.500 C 262 250.325, 262.450 251, 263 251 C 263.550 251, 264 250.325, 264 249.500 C 264 248.675, 263.550 248, 263 248 C 262.450 248, 262 248.675, 262 249.500 M 243.488 257.297 C 242.684 260.384, 243.472 261.928, 245.047 260.353 C 245.696 259.704, 245.729 258.468, 245.138 256.920 L 244.215 254.500 243.488 257.297 M 274 258.378 C 274 259.971, 276.779 262.554, 277.605 261.728 C 278.370 260.963, 276.157 257, 274.965 257 C 274.434 257, 274 257.620, 274 258.378 M 276.510 264.016 C 276.856 264.575, 277.557 264.774, 278.069 264.457 C 279.456 263.600, 279.198 263, 277.441 263 C 276.584 263, 276.165 263.457, 276.510 264.016 M 249.633 268.515 C 248.803 270.676, 249.807 274.456, 252.441 279.094 C 253.782 281.455, 254.639 283.775, 254.346 284.250 C 253.325 285.902, 254.947 289.578, 258.423 293.484 C 260.346 295.645, 262.233 297.100, 262.618 296.716 C 263.002 296.332, 263.900 296.502, 264.614 297.095 C 265.992 298.238, 268.370 297.408, 267.544 296.071 C 267.117 295.380, 272.303 290, 273.398 290 C 273.626 290, 273.562 290.960, 273.255 292.134 C 272.852 293.673, 273.087 294.136, 274.098 293.793 C 275.041 293.474, 275.405 292.099, 275.210 289.593 C 275.051 287.543, 275.560 284.583, 276.342 283.015 C 277.125 281.447, 277.765 277.423, 277.765 274.072 L 277.765 267.979 274.632 268.376 C 272.910 268.594, 269.925 269.444, 268 270.264 C 263.984 271.974, 261.017 271.713, 257.375 269.326 C 254.084 267.170, 250.301 266.773, 249.633 268.515 M 269.600 294.600 C 269.244 295.527, 269.178 296.511, 269.453 296.786 C 269.728 297.061, 270.244 296.527, 270.600 295.600 C 270.956 294.673, 271.022 293.689, 270.747 293.414 C 270.472 293.139, 269.956 293.673, 269.600 294.600" stroke="none" fill="#FF9500" fill-rule="evenodd"/></svg>