<svg xmlns="http://www.w3.org/2000/svg" width="394" height="300" viewBox="0 0 394 300" version="1.1"><path d="M 237.343 88.239 C 237.430 89.707, 237.882 90.516, 238.354 90.045 C 238.825 89.574, 238.755 88.384, 238.196 87.386 C 237.327 85.833, 237.207 85.952, 237.343 88.239 M 202.116 139.750 C 202.045 141.135, 202.577 142, 203.500 142 C 204.325 142, 205 141.523, 205 140.941 C 205 140.359, 204.584 140.139, 204.076 140.453 C 203.567 140.767, 202.945 140.231, 202.692 139.262 C 202.342 137.921, 202.204 138.038, 202.116 139.750 M 170.268 142.417 C 170.395 143.472, 171.175 144.518, 172 144.743 C 172.965 145.006, 173.107 144.857, 172.400 144.326 C 171.795 143.872, 171.015 142.825, 170.668 142 C 170.223 140.946, 170.104 141.070, 170.268 142.417 M 200.872 144.750 C 199.658 146.298, 199.683 146.357, 201.092 145.259 C 201.968 144.576, 203.052 144.351, 203.502 144.759 C 203.952 145.166, 203.997 144.938, 203.601 144.250 C 202.672 142.634, 202.508 142.664, 200.872 144.750 M 170 148.031 C 170 148.564, 170.675 149, 171.500 149 C 172.325 149, 173 148.823, 173 148.607 C 173 148.391, 172.325 147.955, 171.500 147.638 C 170.675 147.322, 170 147.499, 170 148.031 M 261 148.500 C 260.282 149.365, 260.185 150, 260.771 150 C 261.329 150, 262.045 149.325, 262.362 148.500 C 262.678 147.675, 262.781 147, 262.591 147 C 262.401 147, 261.685 147.675, 261 148.500 M 220.750 158.662 C 221.438 158.940, 222.563 158.940, 223.250 158.662 C 223.938 158.385, 223.375 158.158, 222 158.158 C 220.625 158.158, 220.063 158.385, 220.750 158.662 M 234.750 159.662 C 235.438 159.940, 236.563 159.940, 237.250 159.662 C 237.938 159.385, 237.375 159.158, 236 159.158 C 234.625 159.158, 234.063 159.385, 234.750 159.662 M 301.731 177.080 C 302.085 178.432, 302.538 178.886, 302.788 178.137 C 303.028 177.415, 302.750 176.350, 302.168 175.768 C 301.426 175.026, 301.296 175.417, 301.731 177.080 M 134.572 179.905 C 135.455 180.788, 138 180.839, 138 179.974 C 138 179.507, 137.119 179.191, 136.043 179.272 C 134.967 179.353, 134.305 179.638, 134.572 179.905 M 147.333 182.667 C 147.333 183.400, 147.660 184, 148.060 184 C 148.459 184, 149.016 183.400, 149.298 182.667 C 149.579 181.933, 149.252 181.333, 148.571 181.333 C 147.890 181.333, 147.333 181.933, 147.333 182.667 M 334.750 204.662 C 335.438 204.940, 336.563 204.940, 337.250 204.662 C 337.938 204.385, 337.375 204.158, 336 204.158 C 334.625 204.158, 334.063 204.385, 334.750 204.662 M 196.100 224.295 C 194.835 226.402, 194.857 226.423, 196.579 224.774 C 197.570 223.824, 198.166 222.832, 197.903 222.569 C 197.640 222.306, 196.829 223.083, 196.100 224.295 M 215.750 223.662 C 216.438 223.940, 217.563 223.940, 218.250 223.662 C 218.938 223.385, 218.375 223.158, 217 223.158 C 215.625 223.158, 215.063 223.385, 215.750 223.662 M 109 226.559 C 109 227.416, 109.457 227.835, 110.016 227.490 C 110.575 227.144, 110.774 226.443, 110.457 225.931 C 109.600 224.544, 109 224.802, 109 226.559 M 212.667 235.667 C 211.399 236.934, 212.008 238, 214 238 C 215.100 238, 216 237.564, 216 237.031 C 216 236.499, 215.251 236.350, 214.336 236.701 C 213.217 237.131, 212.909 236.957, 213.395 236.170 C 214.180 234.899, 213.739 234.594, 212.667 235.667 M 176.399 239.250 C 176.003 239.938, 176.056 240.158, 176.515 239.741 C 176.975 239.323, 178.510 239.998, 179.926 241.241 L 182.500 243.500 180.076 240.750 C 177.279 237.578, 177.346 237.605, 176.399 239.250 M 263.269 250.693 C 264.242 250.947, 265.592 250.930, 266.269 250.656 C 266.946 250.382, 266.150 250.175, 264.500 250.195 C 262.850 250.215, 262.296 250.439, 263.269 250.693 M 237.638 254.500 C 237.955 255.325, 238.343 256, 238.500 256 C 238.657 256, 239.045 255.325, 239.362 254.500 C 239.709 253.595, 239.367 253, 238.500 253 C 237.633 253, 237.291 253.595, 237.638 254.500 M 73.869 265.342 C 74.481 266.080, 74.649 267.052, 74.241 267.502 C 73.834 267.952, 74.084 267.983, 74.799 267.571 C 75.799 266.994, 75.828 266.498, 74.926 265.411 C 74.282 264.635, 73.530 264, 73.255 264 C 72.980 264, 73.256 264.604, 73.869 265.342 M 198 280.383 C 198 280.594, 198.901 281.002, 200.001 281.290 C 201.102 281.578, 201.751 281.405, 201.442 280.907 C 200.904 280.036, 198 279.594, 198 280.383" stroke="none" fill="#84a4bc" fill-rule="evenodd"/><path d="M 239.500 58.808 C 236.821 59.354, 235 60.926, 235 62.694 C 235 65.598, 232.589 66.602, 226.226 66.347 C 222.048 66.179, 219.411 65.554, 218.332 64.475 C 217.211 63.354, 215.910 63.070, 214.106 63.553 C 212.673 63.937, 211.008 64.270, 210.406 64.292 C 209.804 64.315, 209.427 65.386, 209.568 66.672 C 209.709 67.958, 209.418 68.758, 208.921 68.451 C 208.423 68.144, 206.274 67.760, 204.145 67.599 C 201.147 67.371, 200.299 67.656, 200.387 68.860 C 200.453 69.774, 199.675 70.432, 198.500 70.457 C 195.313 70.525, 191.853 73.453, 192.615 75.438 C 193.069 76.622, 192.275 78.069, 190.062 80.091 C 188.295 81.705, 186.515 82.818, 186.106 82.565 C 185.697 82.312, 185.551 83.397, 185.783 84.975 C 186.079 86.995, 185.597 88.365, 184.153 89.601 C 182.195 91.277, 182.125 93.659, 184.069 92.457 C 184.581 92.141, 185 92.711, 185 93.724 C 185 95.103, 184.308 95.529, 182.250 95.418 C 177.485 95.160, 176 96.600, 176 101.476 C 176 103.899, 176.430 106.148, 176.956 106.473 C 177.482 106.798, 177.638 107.780, 177.302 108.656 C 176.941 109.597, 177.367 110.626, 178.346 111.173 C 180.161 112.190, 180.616 115, 178.965 115 C 178.259 115, 178.252 115.602, 178.943 116.893 C 179.720 118.346, 179.480 119.392, 177.909 121.388 C 176.531 123.141, 176.085 124.693, 176.545 126.142 C 177.128 127.978, 176.912 128.210, 175.073 127.729 C 173.236 127.249, 173.015 127.485, 173.576 129.333 C 174.520 132.442, 180.993 143, 181.956 143 C 182.402 143, 183.002 143.900, 183.290 145 C 183.680 146.492, 183.320 147, 181.875 147 C 180.809 147, 179.664 147.713, 179.329 148.584 C 178.844 149.849, 178.557 149.901, 177.902 148.842 C 177.291 147.853, 176.795 147.805, 175.948 148.652 C 174.580 150.020, 175.171 153.589, 176.715 153.282 C 177.317 153.162, 178.085 153.778, 178.420 154.652 C 178.885 155.863, 178.551 156.116, 177.015 155.714 C 174.650 155.096, 174.274 156.508, 176.570 157.388 C 177.433 157.720, 179.346 157.336, 180.820 156.535 C 182.294 155.735, 182.965 155.062, 182.312 155.040 C 180.951 154.994, 180.959 151, 182.320 151 C 182.812 151, 182.946 150.302, 182.618 149.448 C 182.277 148.558, 182.445 148.157, 183.011 148.507 C 183.555 148.843, 184 149.965, 184 150.999 C 184 152.464, 184.609 152.808, 186.750 152.554 C 188.262 152.375, 190.089 152.177, 190.809 152.114 C 191.529 152.051, 191.896 151.641, 191.625 151.202 C 191.354 150.763, 191.511 149.791, 191.974 149.042 C 192.755 147.778, 194.599 147.293, 199.417 147.083 C 200.471 147.037, 201.037 146.704, 200.675 146.342 C 200.313 145.980, 200.455 145.157, 200.990 144.512 C 201.525 143.867, 202.140 140.676, 202.356 137.420 C 202.732 131.767, 202.928 131.388, 206.710 129.018 C 211.201 126.204, 213.355 122.755, 211.672 121.072 C 211.082 120.482, 210.063 120, 209.407 120 C 208.751 120, 207.944 119.296, 207.614 118.437 C 207.284 117.577, 206.652 117.097, 206.209 117.371 C 204.221 118.599, 202.576 115.924, 202.645 111.574 C 202.709 107.544, 203.220 106.549, 207.171 102.764 C 209.620 100.417, 212.359 98.638, 213.256 98.811 C 215.497 99.242, 221.096 93.774, 220.086 92.139 C 219.655 91.442, 219.503 89.818, 219.749 88.532 C 220.443 84.901, 226.875 83.578, 234.686 85.458 C 237.864 86.222, 239.537 88.323, 238.414 90.139 C 238.048 90.732, 237.316 90.677, 236.495 89.996 C 235.479 89.153, 235.016 89.376, 234.517 90.947 C 234.158 92.076, 233.558 93, 233.182 93 C 232.806 93, 230.587 94.748, 228.250 96.884 C 225.912 99.021, 224 100.527, 224 100.231 C 224 99.936, 223.116 100.713, 222.036 101.958 C 220.083 104.210, 220.084 104.244, 222.129 108.253 C 223.362 110.670, 224.036 113.568, 223.811 115.491 C 223.519 117.992, 223.775 118.610, 224.973 118.297 C 225.819 118.076, 227.568 118.880, 228.861 120.085 C 230.777 121.870, 231.374 122.019, 232.091 120.888 C 232.788 119.786, 232.973 119.865, 232.985 121.269 C 233.001 123.202, 233.693 123.145, 243.760 120.382 C 246.653 119.588, 250.584 118.880, 252.495 118.808 C 254.406 118.736, 256.858 117.850, 257.943 116.839 C 259.028 115.827, 260.265 115, 260.692 115 C 261.118 115, 263.813 112.499, 266.680 109.443 C 272.488 103.252, 272.586 101.690, 267.305 99.483 C 264.530 98.323, 263.978 97.644, 264.494 96.020 C 264.951 94.580, 264.685 94, 263.567 94 C 262.705 94, 262 93.373, 262 92.607 C 262 91.841, 261.368 90.971, 260.595 90.675 C 259.701 90.332, 259.280 88.928, 259.436 86.818 C 259.622 84.323, 258.978 82.771, 256.841 80.560 C 253.571 77.177, 253.456 76.697, 255.500 75 C 257.391 73.431, 257.430 72, 255.583 72 C 254.804 72, 254.010 71.530, 253.819 70.956 C 253.627 70.381, 252.496 69.838, 251.304 69.748 C 250.113 69.658, 249.359 69.228, 249.628 68.792 C 249.898 68.357, 249.716 68, 249.226 68 C 248.735 68, 248.333 67.325, 248.333 66.500 C 248.333 65.675, 248.783 65, 249.333 65 C 249.883 65, 250.037 64.704, 249.675 64.342 C 249.313 63.980, 249.512 63.088, 250.117 62.359 C 250.970 61.331, 250.575 60.783, 248.359 59.922 C 244.951 58.598, 242.218 58.254, 239.500 58.808 M 241.112 125.024 C 238.698 125.529, 236.514 126.153, 236.258 126.409 C 235.082 127.585, 237.842 132.491, 239.962 132.991 C 243.188 133.753, 243.885 139.456, 240.944 141.030 C 239.234 141.945, 238.468 141.641, 236.106 139.113 C 234.067 136.930, 232.703 136.265, 231.118 136.679 C 229.138 137.197, 226.030 141, 227.587 141 C 227.949 141, 227.734 141.616, 227.109 142.369 C 226.245 143.410, 226.156 148.500, 227.002 148.500 C 227.085 148.500, 227.314 149.355, 227.510 150.400 C 227.880 152.371, 229.591 153.867, 231.750 154.110 C 232.438 154.187, 233.549 154.306, 234.220 154.375 C 235.389 154.495, 238.249 159.084, 237.575 159.758 C 237.396 159.937, 234.551 159.649, 231.253 159.118 C 227.717 158.549, 223.680 158.508, 221.413 159.020 C 217.738 159.848, 214.404 158.773, 215.442 157.094 C 216.424 155.505, 209.633 156.131, 205.799 157.983 C 203.503 159.092, 200.835 160, 199.871 160 C 198.907 160, 197.835 160.457, 197.490 161.016 C 197.144 161.575, 196.452 161.779, 195.952 161.470 C 195.451 161.161, 194.177 161.370, 193.121 161.935 C 191.636 162.730, 191.062 162.603, 190.592 161.378 C 190.217 160.403, 189.355 160.034, 188.350 160.419 C 187.060 160.914, 186.955 160.759, 187.850 159.681 C 189.175 158.085, 188.190 156.639, 186.592 157.834 C 184.754 159.207, 177.021 161.131, 175.963 160.477 C 175.415 160.139, 175.269 159.373, 175.638 158.776 C 176.040 158.126, 175.843 157.979, 175.146 158.410 C 173.358 159.515, 170.174 158.124, 169.479 155.934 C 169.136 154.854, 168.438 154.229, 167.928 154.544 C 167.418 154.860, 167 154.641, 167 154.059 C 167 152.360, 169.446 152.835, 171.750 154.982 L 173.877 156.964 173.671 154.232 C 173.521 152.247, 172.854 151.413, 171.232 151.180 C 167.934 150.708, 168.661 148.069, 172.500 146.577 C 174.442 145.822, 174.434 145.774, 172.250 144.932 C 169.925 144.036, 169.339 142.108, 170.886 140.450 C 171.374 139.928, 171.460 138.654, 171.078 137.620 C 170.426 135.859, 170.209 135.902, 167.612 138.309 C 166.088 139.721, 164.196 140.629, 163.408 140.326 C 162.620 140.024, 161.375 140.274, 160.643 140.882 C 158.846 142.373, 159.058 150.800, 160.921 151.952 C 161.703 152.435, 162.378 154.442, 162.421 156.412 C 162.465 158.382, 162.838 159.995, 163.250 159.997 C 163.662 159.999, 164 160.750, 164 161.667 C 164 162.583, 163.707 163.040, 163.349 162.682 C 162.991 162.324, 162.105 162.812, 161.381 163.766 C 160.656 164.719, 160.049 164.999, 160.032 164.387 C 159.998 163.212, 157.520 163.179, 155 164.321 C 154.175 164.694, 151.984 165.172, 150.132 165.383 C 146.374 165.809, 145.001 167.288, 145.739 170.111 C 146.017 171.172, 145.718 172, 145.058 172 C 144.411 172, 144.119 171.616, 144.409 171.147 C 144.699 170.678, 144.290 169.441, 143.500 168.397 C 142.150 166.614, 142.062 166.609, 142.032 168.302 C 141.987 170.866, 137.740 177.983, 136.250 177.992 C 135.563 177.997, 135 178.436, 135 178.969 C 135 179.501, 135.675 179.678, 136.500 179.362 C 137.325 179.045, 138 179.172, 138 179.643 C 138 180.114, 136.312 180.550, 134.250 180.610 C 128.308 180.784, 125 182.533, 125 185.500 C 125 187.339, 124.234 188.366, 122.250 189.186 C 120.737 189.811, 119.176 190.255, 118.780 190.171 C 118.384 190.088, 117.578 190.921, 116.988 192.022 C 116.206 193.483, 115.207 193.895, 113.289 193.548 C 111.844 193.286, 110.401 192.673, 110.081 192.187 C 109.087 190.674, 105.857 191.185, 106.461 192.760 C 108.566 198.245, 108.364 198.674, 103.816 198.370 C 101.442 198.212, 99.050 198.059, 98.500 198.032 C 97.950 198.004, 96.375 198.173, 95 198.407 C 93.625 198.642, 91.938 198.871, 91.250 198.917 C 90.563 198.963, 90 199.477, 90 200.059 C 90 200.641, 90.563 200.780, 91.250 200.367 C 92.187 199.804, 92.175 200.017, 91.201 201.219 C 89.601 203.195, 89.815 203.328, 98 205.468 C 101.001 206.252, 103 207.315, 103 208.126 C 103 208.672, 103.450 208.840, 104 208.500 C 104.560 208.154, 105 208.933, 105 210.272 C 105 211.784, 105.899 213.143, 107.447 213.972 C 108.793 214.692, 110.138 215.916, 110.436 216.693 C 110.734 217.472, 110.534 217.830, 109.989 217.493 C 108.618 216.646, 108.745 218.345, 110.158 219.758 C 111.034 220.634, 110.996 221.300, 110 222.500 C 109.081 223.607, 109.001 224.401, 109.735 225.135 C 110.469 225.869, 110.381 226.965, 109.444 228.771 C 108.706 230.193, 108.299 231.675, 108.540 232.065 C 108.781 232.455, 108.239 233.387, 107.336 234.137 C 105.569 235.603, 97 236.252, 97 234.920 C 97 234.477, 95.987 234.350, 94.750 234.638 C 93.513 234.925, 92.050 235.124, 91.500 235.078 C 90.950 235.033, 87.125 234.768, 83 234.490 C 78.875 234.211, 74.268 233.711, 72.762 233.377 C 70.774 232.937, 69.855 233.213, 69.405 234.386 C 69.065 235.274, 67.747 236, 66.476 236 C 63.701 236, 62.871 237.775, 64.372 240.500 C 64.978 241.600, 65.564 244.075, 65.673 246 C 65.783 247.925, 65.909 250.175, 65.953 251 C 66.127 254.253, 64.639 259.633, 62.866 262.154 C 60.953 264.876, 60.263 269.574, 61.928 268.544 C 63.698 267.451, 65.139 275.590, 63.795 279.091 C 63.340 280.277, 64.152 280.551, 67.863 280.464 C 70.414 280.404, 73.237 280.022, 74.137 279.614 C 75.774 278.873, 78.830 282.160, 80.306 286.250 C 80.996 288.162, 83.510 288.601, 84.509 286.985 C 85.724 285.019, 92.561 282.814, 98 282.634 C 102.524 282.485, 103.980 281.969, 106.205 279.726 C 107.692 278.227, 109.561 277, 110.357 277 C 111.153 277, 112.263 275.685, 112.823 274.077 C 113.383 272.470, 114.778 270.654, 115.921 270.042 C 117.871 268.999, 117.902 268.779, 116.417 266.514 C 114.471 263.543, 115.202 260.885, 119.050 256.949 C 120.635 255.327, 121.691 254, 121.395 254 C 119.727 254, 124.090 251.139, 126.597 250.589 C 134.009 248.961, 136.623 245.672, 134.495 240.653 C 133.249 237.715, 138.507 233.998, 142.349 235.100 C 143.964 235.563, 145.671 235.704, 146.142 235.412 C 146.614 235.120, 147 235.306, 147 235.824 C 147 238.070, 152.548 237.829, 156.054 235.431 C 158.008 234.094, 160.142 233, 160.795 233 C 161.449 233, 162.545 232.100, 163.232 231 C 165.506 227.359, 174.415 229.485, 175.501 233.928 C 176.281 237.117, 184.941 246.135, 186.418 245.295 C 187.013 244.956, 187.184 245.030, 186.798 245.459 C 185.348 247.067, 192.954 251.765, 194.979 250.513 C 195.425 250.237, 196.056 250.704, 196.381 251.551 C 196.706 252.398, 198.553 253.751, 200.486 254.559 C 202.419 255.366, 204 256.696, 204 257.513 C 204 258.331, 204.824 259, 205.831 259 C 207.592 259, 208.426 260.207, 210.883 266.314 C 211.572 268.026, 211.621 268.884, 211.008 268.505 C 210.453 268.162, 210 268.757, 210 269.827 C 210 271.372, 209.055 271.915, 205.410 272.461 C 202.885 272.840, 199.969 273.313, 198.931 273.513 C 197.892 273.713, 196.840 273.551, 196.594 273.152 C 195.715 271.730, 190.504 272.651, 190.187 274.284 C 189.867 275.930, 196.435 280, 199.410 280 C 200.230 280, 201.260 280.632, 201.700 281.405 C 202.140 282.177, 203.400 282.965, 204.500 283.155 C 206.097 283.430, 206.460 282.996, 206.301 281 C 205.990 277.080, 206.957 273.816, 208.287 274.294 C 209.977 274.901, 213.183 273.105, 212.469 271.950 C 212.146 271.427, 212.359 271, 212.941 271 C 213.523 271, 214 270.325, 214 269.500 C 214 268.675, 214.705 268, 215.566 268 C 216.685 268, 217.042 267.214, 216.816 265.250 C 216.604 263.400, 215.982 262.584, 214.917 262.756 C 212.893 263.082, 212.783 260.056, 214.737 257.806 C 215.948 256.412, 216.583 256.324, 218.334 257.306 C 219.503 257.963, 221.001 259.175, 221.663 260 C 222.613 261.186, 223.126 261.243, 224.109 260.274 C 225.938 258.470, 223.008 255.657, 215.473 251.987 C 211.203 249.907, 209.274 248.402, 209.366 247.223 C 209.458 246.034, 208.725 245.476, 207 245.421 C 205.625 245.378, 204.050 245.265, 203.500 245.170 C 201.897 244.894, 197 240.372, 197 239.168 C 197 237.733, 190.890 230.777, 190.218 231.448 C 189.935 231.732, 188.871 231.004, 187.854 229.831 C 186.451 228.214, 186.275 227.373, 187.125 226.350 C 187.960 225.344, 187.912 224.599, 186.937 223.424 C 185.853 222.117, 185.874 221.692, 187.064 220.939 C 187.854 220.439, 189.025 220.024, 189.667 220.015 C 190.308 220.007, 191.060 219.437, 191.338 218.750 C 191.726 217.789, 191.860 217.802, 191.921 218.809 C 191.964 219.529, 192.338 219.914, 192.750 219.664 C 193.162 219.414, 194.160 219.923, 194.967 220.795 C 196.268 222.201, 196.240 222.306, 194.717 221.722 C 192.786 220.980, 192.547 221.777, 194.034 224 C 194.912 225.311, 195.207 225.280, 196.379 223.750 C 197.117 222.787, 198.063 222, 198.483 222 C 198.902 222, 198.766 222.578, 198.180 223.284 C 197.504 224.097, 197.454 225.104, 198.042 226.034 C 198.792 227.220, 198.973 227.119, 198.988 225.500 C 199.003 223.961, 199.495 224.306, 201.125 227 C 202.289 228.925, 203.928 230.896, 204.765 231.380 C 205.603 231.865, 207.800 233.817, 209.647 235.719 C 211.494 237.621, 212.748 238.508, 212.434 237.690 C 212.120 236.872, 212.344 235.905, 212.932 235.542 C 213.519 235.179, 214 235.385, 214 236 C 214 236.615, 214.526 236.793, 215.170 236.395 C 215.957 235.909, 216.131 236.217, 215.701 237.336 C 215.280 238.433, 215.575 239, 216.567 239 C 218.325 239, 222.268 241.366, 226.500 244.960 C 228.971 247.058, 229.477 248.213, 229.372 251.504 C 229.216 256.416, 229.864 259.202, 231 258.500 C 231.471 258.209, 232.144 258.877, 232.495 259.985 C 232.847 261.093, 233.503 262, 233.952 262 C 235.480 262, 238.182 256.805, 237.671 254.851 C 237.234 253.178, 237.580 252.971, 240.142 253.375 C 242.007 253.669, 243.305 253.368, 243.611 252.571 C 243.899 251.821, 245.109 251.489, 246.550 251.765 C 248.589 252.155, 249.003 251.836, 249.015 249.867 C 249.027 248.017, 249.234 247.821, 249.961 248.971 C 250.723 250.177, 251.623 250.247, 254.946 249.360 C 257.176 248.765, 259 248.665, 259 249.139 C 259 249.613, 261.073 250, 263.607 250 C 267.291 250, 268.099 249.700, 267.638 248.500 C 267.288 247.586, 267.637 247, 268.531 247 C 269.339 247, 270 246.500, 270 245.889 C 270 245.172, 271.178 244.998, 273.322 245.401 C 277.181 246.125, 278.474 245.332, 276.559 243.416 C 275.430 242.287, 275.472 241.497, 276.815 238.535 C 277.696 236.591, 278.773 235, 279.208 235 C 279.644 235, 280.006 233.988, 280.014 232.750 C 280.040 228.399, 281.189 226, 283.247 226 C 284.980 226, 285.184 225.524, 284.709 222.596 C 284.259 219.819, 284.509 219.100, 286.066 218.693 C 287.117 218.418, 288.398 217.084, 288.913 215.728 C 290.426 211.750, 295.795 211.441, 295.078 215.373 C 294.990 215.853, 295.597 215.985, 296.427 215.666 C 297.257 215.348, 298.213 215.536, 298.552 216.084 C 298.891 216.633, 300.021 216.811, 301.064 216.480 C 302.107 216.149, 303.666 216.273, 304.529 216.756 C 305.843 217.492, 305.684 217.823, 303.549 218.796 C 300.216 220.314, 300.331 221.309, 304 222.694 C 305.942 223.427, 307 224.525, 307 225.806 C 307 227.937, 310.226 229.821, 310.821 228.037 C 311.353 226.442, 318.903 223.035, 319.558 224.095 C 319.888 224.629, 320.935 224.570, 322.089 223.953 C 324.931 222.431, 323.350 220.790, 319.539 221.303 C 316.800 221.672, 316.016 221.297, 314.633 218.957 C 313.003 216.197, 313.020 216.151, 316.362 214.085 C 318.218 212.938, 320.669 212, 321.809 212 C 322.949 212, 324.165 211.543, 324.510 210.984 C 324.856 210.425, 325.557 210.226, 326.069 210.543 C 326.581 210.859, 327 210.589, 327 209.942 C 327 209.250, 327.842 208.987, 329.049 209.303 C 330.701 209.734, 331.040 209.419, 330.799 207.680 C 330.635 206.493, 331.025 205.517, 331.667 205.511 C 332.308 205.505, 333.171 205.162, 333.583 204.750 C 333.996 204.338, 335.383 204, 336.667 204 C 338.333 204, 339 203.429, 339 202 C 339 200.900, 338.554 200, 338.009 200 C 337.446 200, 337.223 198.372, 337.492 196.229 C 337.961 192.497, 337.914 192.439, 333.099 190.729 C 330.422 189.778, 327.427 189, 326.445 189 C 325.462 189, 323.867 188.285, 322.901 187.410 C 321.686 186.311, 320.637 186.104, 319.502 186.739 C 317.289 187.978, 311.132 185.990, 310.441 183.814 C 310.146 182.884, 308.341 181.608, 306.430 180.977 C 303.936 180.154, 302.552 178.863, 301.523 176.401 C 300.187 173.202, 299.820 172.993, 296.070 173.294 C 293.859 173.472, 291.739 173.928, 291.358 174.308 C 289.843 175.824, 288.132 174.839, 286.913 171.750 C 286.207 169.963, 285.471 168.221, 285.275 167.881 C 285.080 167.541, 285.951 167.439, 287.210 167.655 C 288.470 167.871, 290.146 167.621, 290.936 167.100 C 292.125 166.315, 292.147 165.882, 291.063 164.576 C 290.344 163.709, 288.958 163, 287.985 163 C 287.011 163, 285.955 162.325, 285.638 161.500 C 285.322 160.675, 284.486 159.996, 283.781 159.992 C 282.363 159.984, 280 155.556, 280 152.908 C 280 151.005, 277.726 149.714, 274 149.501 C 272.625 149.422, 270.233 148.827, 268.685 148.179 C 267.137 147.531, 265.502 147, 265.052 147 C 264.601 147, 263.998 146.100, 263.710 145 C 263.423 143.900, 262.440 143, 261.526 143 C 260.320 143, 260.039 142.452, 260.500 141 C 260.891 139.769, 260.680 139, 259.951 139 C 259.273 139, 258.983 138.174, 259.272 137.069 C 259.559 135.971, 258.971 134.273, 257.910 133.134 C 255.607 130.662, 255.087 128.606, 256.750 128.545 C 257.438 128.520, 257.962 128.100, 257.915 127.612 C 257.868 127.123, 258.424 126.356, 259.152 125.906 C 260.108 125.315, 259.923 125.097, 258.487 125.118 C 257.394 125.135, 254.025 124.913, 251 124.627 C 247.975 124.340, 243.525 124.519, 241.112 125.024 M 230.605 127.777 C 229.081 128.119, 228.983 128.379, 230.105 129.101 C 231.225 129.823, 231.247 130.164, 230.216 130.830 C 229.499 131.293, 229.220 132.409, 229.583 133.355 C 230.088 134.673, 230.542 134.795, 231.617 133.903 C 232.378 133.272, 233 133.090, 233 133.500 C 233 133.910, 233.675 133.685, 234.500 133 C 236.492 131.346, 236.419 129.625, 234.389 130.404 C 233.247 130.843, 232.943 130.592, 233.345 129.543 C 234.027 127.765, 233.158 127.204, 230.605 127.777 M 211.554 136.337 C 210.273 137.274, 209.961 138.301, 210.470 139.904 C 211.161 142.081, 211.243 142.095, 212.950 140.328 C 215.813 137.366, 214.659 134.067, 211.554 136.337 M 161.872 143.750 C 160.658 145.298, 160.683 145.357, 162.092 144.259 C 162.968 143.576, 164.052 143.351, 164.502 143.759 C 164.952 144.166, 164.997 143.938, 164.601 143.250 C 163.672 141.634, 163.508 141.664, 161.872 143.750 M 202.607 143.582 C 201.772 145.757, 201.829 146, 203.167 146 C 203.808 146, 204.037 145.704, 203.675 145.342 C 203.313 144.980, 203.519 144.080, 204.131 143.342 C 204.831 142.498, 204.868 142, 204.229 142 C 203.671 142, 202.941 142.712, 202.607 143.582 M 261 148.500 C 260.282 149.365, 260.185 150, 260.771 150 C 261.329 150, 262.045 149.325, 262.362 148.500 C 262.678 147.675, 262.781 147, 262.591 147 C 262.401 147, 261.685 147.675, 261 148.500 M 194.500 154 C 194.160 154.550, 194.610 155, 195.500 155 C 196.390 155, 196.840 154.550, 196.500 154 C 196.160 153.450, 195.710 153, 195.500 153 C 195.290 153, 194.840 153.450, 194.500 154 M 147.333 182.667 C 147.333 183.400, 147.660 184, 148.060 184 C 148.459 184, 149.016 183.400, 149.298 182.667 C 149.579 181.933, 149.252 181.333, 148.571 181.333 C 147.890 181.333, 147.333 181.933, 147.333 182.667 M 215.750 223.662 C 216.438 223.940, 217.563 223.940, 218.250 223.662 C 218.938 223.385, 218.375 223.158, 217 223.158 C 215.625 223.158, 215.063 223.385, 215.750 223.662 M 170 239.833 C 170 240.475, 169.662 240.947, 169.250 240.882 C 165.513 240.291, 164.782 244.283, 167.922 248.139 L 169.845 250.500 170.869 247.824 C 171.433 246.352, 171.666 243.887, 171.386 242.346 C 170.851 239.396, 170 237.853, 170 239.833 M 168.045 252.446 C 167.345 253.289, 166.405 253.751, 165.956 253.473 C 164.322 252.463, 163.953 255.008, 165.339 257.721 C 166.268 259.539, 166.470 261.268, 165.922 262.721 C 165.323 264.311, 165.558 265.415, 166.748 266.605 C 167.832 267.689, 168.542 267.873, 168.789 267.134 C 168.997 266.510, 169.986 266, 170.987 266 C 174.301 266, 174.184 251.852, 170.864 251.212 C 170.013 251.048, 168.744 251.604, 168.045 252.446 M 139.500 260 C 139.840 260.550, 140.541 261, 141.059 261 C 141.577 261, 142 260.550, 142 260 C 142 259.450, 141.298 259, 140.441 259 C 139.584 259, 139.160 259.450, 139.500 260 M 131.533 261.352 C 129.797 262.622, 129.855 262.747, 132.487 263.407 C 135.816 264.243, 138.364 262.473, 135.992 260.974 C 134.029 259.733, 133.711 259.760, 131.533 261.352 M 73.869 265.342 C 74.481 266.080, 74.649 267.052, 74.241 267.502 C 73.834 267.952, 74.084 267.983, 74.799 267.571 C 75.799 266.994, 75.828 266.498, 74.926 265.411 C 74.282 264.635, 73.530 264, 73.255 264 C 72.980 264, 73.256 264.604, 73.869 265.342" stroke="none" fill="#00FF15" fill-rule="evenodd"/></svg>