<svg xmlns="http://www.w3.org/2000/svg" width="297" height="300" viewBox="0 0 297 300" version="1.1"><path d="M 178.813 7.683 C 179.534 7.972, 180.397 7.936, 180.729 7.604 C 181.061 7.272, 180.471 7.036, 179.417 7.079 C 178.252 7.127, 178.015 7.364, 178.813 7.683 M 173.429 14.893 C 173.429 15.935, 174.345 17.338, 175.464 18.011 C 177.143 19.020, 177.281 19.004, 176.250 17.918 C 175.563 17.193, 175 15.790, 175 14.800 C 175 13.810, 174.646 13, 174.214 13 C 173.782 13, 173.429 13.852, 173.429 14.893 M 184.600 16.600 C 184.244 17.527, 184.178 18.511, 184.453 18.786 C 184.728 19.061, 185.244 18.527, 185.600 17.600 C 185.956 16.673, 186.022 15.689, 185.747 15.414 C 185.472 15.139, 184.956 15.673, 184.600 16.600 M 169.345 17.543 C 169.019 18.392, 168.976 19.310, 169.249 19.583 C 169.523 19.856, 169.986 19.161, 170.279 18.040 C 170.903 15.657, 170.210 15.289, 169.345 17.543 M 181.500 21 C 181.840 21.550, 182.316 22, 182.559 22 C 182.802 22, 183 21.550, 183 21 C 183 20.450, 182.523 20, 181.941 20 C 181.359 20, 181.160 20.450, 181.500 21 M 178 22.941 C 178 23.459, 178.445 24.157, 178.989 24.493 C 179.555 24.843, 179.723 24.442, 179.382 23.552 C 178.717 21.820, 178 21.503, 178 22.941 M 191.543 25.931 C 191.226 26.443, 191.350 27.098, 191.817 27.387 C 192.284 27.676, 192.667 27.257, 192.667 26.456 C 192.667 24.770, 192.351 24.623, 191.543 25.931 M 172.603 26.833 C 172.320 27.292, 172.723 27.667, 173.500 27.667 C 174.277 27.667, 174.680 27.292, 174.397 26.833 C 174.114 26.375, 173.710 26, 173.500 26 C 173.290 26, 172.886 26.375, 172.603 26.833 M 180.211 27.601 C 179.501 28.370, 179.362 29, 179.902 29 C 180.940 29, 182.443 27.098, 181.850 26.534 C 181.658 26.351, 180.920 26.831, 180.211 27.601 M 159 30.274 C 159 31.159, 159.410 32.136, 159.912 32.446 C 160.414 32.756, 160.727 32.345, 160.608 31.534 C 160.294 29.392, 159 28.379, 159 30.274 M 173 32.500 C 174.611 34.441, 175.633 34.398, 176.416 32.359 C 176.943 30.986, 176.796 30.924, 175.523 31.981 C 174.481 32.846, 174 32.890, 174 32.122 C 174 31.505, 173.495 31, 172.878 31 C 172.102 31, 172.140 31.464, 173 32.500 M 189.500 33 C 189.840 33.550, 190.316 34, 190.559 34 C 190.802 34, 191 33.550, 191 33 C 191 32.450, 190.523 32, 189.941 32 C 189.359 32, 189.160 32.450, 189.500 33 M 180 33.711 C 180 34.285, 180.787 35.373, 181.750 36.128 C 183.369 37.397, 183.390 37.350, 182.033 35.500 C 181.226 34.400, 180.439 33.313, 180.283 33.083 C 180.127 32.854, 180 33.137, 180 33.711 M 157 35.893 C 157 36.384, 157.739 37.069, 158.641 37.416 C 160.014 37.943, 160.076 37.796, 159.019 36.523 C 157.579 34.788, 157 34.607, 157 35.893 M 140.981 39.523 C 139.913 40.810, 139.996 40.939, 141.523 40.353 C 142.862 39.839, 143.117 40.002, 142.510 40.985 C 141.976 41.847, 142.078 42.070, 142.802 41.622 C 143.413 41.245, 143.659 40.275, 143.349 39.468 C 142.650 37.644, 142.538 37.647, 140.981 39.523 M 164.500 42 C 164.840 42.550, 165.316 43, 165.559 43 C 165.802 43, 166 42.550, 166 42 C 166 41.450, 165.523 41, 164.941 41 C 164.359 41, 164.160 41.450, 164.500 42 M 181.813 42.683 C 182.534 42.972, 183.397 42.936, 183.729 42.604 C 184.061 42.272, 183.471 42.036, 182.417 42.079 C 181.252 42.127, 181.015 42.364, 181.813 42.683 M 154 44.031 C 154 44.564, 154.675 45, 155.500 45 C 156.325 45, 157 44.823, 157 44.607 C 157 44.391, 156.325 43.955, 155.500 43.638 C 154.675 43.322, 154 43.499, 154 44.031 M 167.079 45.583 C 167.127 46.748, 167.364 46.985, 167.683 46.188 C 167.972 45.466, 167.936 44.603, 167.604 44.271 C 167.272 43.939, 167.036 44.529, 167.079 45.583 M 53.813 45.683 C 54.534 45.972, 55.397 45.936, 55.729 45.604 C 56.061 45.272, 55.471 45.036, 54.417 45.079 C 53.252 45.127, 53.015 45.364, 53.813 45.683 M 170.500 46 C 170.840 46.550, 171.316 47, 171.559 47 C 171.802 47, 172 46.550, 172 46 C 172 45.450, 171.523 45, 170.941 45 C 170.359 45, 170.160 45.450, 170.500 46 M 152 49 C 152 49.550, 152.477 50, 153.059 50 C 153.641 50, 153.840 49.550, 153.500 49 C 153.160 48.450, 152.684 48, 152.441 48 C 152.198 48, 152 48.450, 152 49 M 155.603 48.833 C 155.320 49.292, 155.743 49.667, 156.544 49.667 C 157.345 49.667, 158 49.292, 158 48.833 C 158 48.375, 157.577 48, 157.059 48 C 156.541 48, 155.886 48.375, 155.603 48.833 M 189.543 54.931 C 189.226 55.443, 189.350 56.098, 189.817 56.387 C 190.284 56.676, 190.667 56.257, 190.667 55.456 C 190.667 53.770, 190.351 53.623, 189.543 54.931 M 167 58.924 C 167 59.398, 167.675 60.045, 168.500 60.362 C 169.325 60.678, 170 60.549, 170 60.076 C 170 59.602, 169.325 58.955, 168.500 58.638 C 167.675 58.322, 167 58.451, 167 58.924 M 134.613 60.183 C 134.902 60.650, 135.557 60.774, 136.069 60.457 C 137.377 59.649, 137.230 59.333, 135.544 59.333 C 134.743 59.333, 134.324 59.716, 134.613 60.183 M 123 68 C 122.207 68.490, 121.783 69.116, 122.058 69.391 C 122.333 69.666, 123.207 69.490, 124 69 C 124.793 68.510, 125.217 67.884, 124.942 67.609 C 124.667 67.334, 123.793 67.510, 123 68 M 159.226 72.579 C 160.176 73.570, 161.168 74.166, 161.431 73.903 C 161.694 73.640, 160.917 72.829, 159.705 72.100 C 157.598 70.835, 157.577 70.857, 159.226 72.579 M 194.079 73.583 C 194.127 74.748, 194.364 74.985, 194.683 74.188 C 194.972 73.466, 194.936 72.603, 194.604 72.271 C 194.272 71.939, 194.036 72.529, 194.079 73.583 M 159.613 76.183 C 159.902 76.650, 160.557 76.774, 161.069 76.457 C 162.377 75.649, 162.230 75.333, 160.544 75.333 C 159.743 75.333, 159.324 75.716, 159.613 76.183 M 168.118 75.927 C 167.114 76.548, 167.172 76.852, 168.384 77.317 C 169.238 77.645, 170.183 77.513, 170.484 77.025 C 171.273 75.750, 169.635 74.989, 168.118 75.927 M 179.035 78.934 C 177.768 81.301, 177.709 82.298, 178.879 81.575 C 179.762 81.029, 181.138 77, 180.442 77 C 180.237 77, 179.605 77.870, 179.035 78.934 M 203 78.167 C 203 78.625, 203.423 79, 203.941 79 C 204.459 79, 205.114 78.625, 205.397 78.167 C 205.680 77.708, 205.257 77.333, 204.456 77.333 C 203.655 77.333, 203 77.708, 203 78.167 M 151.831 80.704 C 150.987 81.721, 151.397 81.758, 153.888 80.889 C 155.600 80.292, 157 79.651, 157 79.464 C 157 78.570, 152.758 79.587, 151.831 80.704 M 13.500 81 C 13.840 81.550, 14.316 82, 14.559 82 C 14.802 82, 15 81.550, 15 81 C 15 80.450, 14.523 80, 13.941 80 C 13.359 80, 13.160 80.450, 13.500 81 M 55.813 83.683 C 56.534 83.972, 57.397 83.936, 57.729 83.604 C 58.061 83.272, 57.471 83.036, 56.417 83.079 C 55.252 83.127, 55.015 83.364, 55.813 83.683 M 41.813 87.683 C 42.534 87.972, 43.397 87.936, 43.729 87.604 C 44.061 87.272, 43.471 87.036, 42.417 87.079 C 41.252 87.127, 41.015 87.364, 41.813 87.683 M 48.333 91.405 C 48.333 92.177, 48.931 92.580, 49.661 92.300 C 50.391 92.020, 50.740 91.388, 50.435 90.895 C 49.589 89.526, 48.333 89.830, 48.333 91.405 M 202.459 92.067 C 202.096 92.653, 202.014 93.348, 202.276 93.610 C 202.538 93.872, 203.019 93.392, 203.345 92.543 C 204.021 90.781, 203.445 90.471, 202.459 92.067 M 217.733 106.124 C 218.412 106.808, 219.219 107.115, 219.526 106.807 C 219.834 106.499, 219.279 105.940, 218.293 105.564 C 216.868 105.022, 216.753 105.136, 217.733 106.124 M 176 107.059 C 176 107.641, 176.450 107.840, 177 107.500 C 177.550 107.160, 178 106.684, 178 106.441 C 178 106.198, 177.550 106, 177 106 C 176.450 106, 176 106.477, 176 107.059 M 86.437 107.771 C 86.779 108.112, 87.761 108.494, 88.621 108.621 C 89.480 108.747, 89.904 108.571, 89.563 108.229 C 89.221 107.888, 88.239 107.506, 87.379 107.379 C 86.520 107.253, 86.096 107.429, 86.437 107.771 M 84.158 110 C 84.158 111.375, 84.385 111.938, 84.662 111.250 C 84.940 110.563, 84.940 109.438, 84.662 108.750 C 84.385 108.063, 84.158 108.625, 84.158 110 M 205.158 110 C 205.158 111.375, 205.385 111.938, 205.662 111.250 C 205.940 110.563, 205.940 109.438, 205.662 108.750 C 205.385 108.063, 205.158 108.625, 205.158 110 M 238.564 111.293 C 238.940 112.279, 239.499 112.834, 239.807 112.526 C 240.115 112.219, 239.808 111.412, 239.124 110.733 C 238.136 109.753, 238.022 109.868, 238.564 111.293 M 224.315 114.250 C 224.254 115.487, 224.421 115.935, 224.687 115.244 C 224.953 114.553, 225.695 114.302, 226.335 114.686 C 226.976 115.070, 226.882 114.623, 226.128 113.692 C 224.406 111.569, 224.447 111.556, 224.315 114.250 M 241.638 114.500 C 241.955 115.325, 242.671 116, 243.229 116 C 243.815 116, 243.718 115.365, 243 114.500 C 242.315 113.675, 241.599 113, 241.409 113 C 241.219 113, 241.322 113.675, 241.638 114.500 M 234.143 127.890 C 233.309 128.419, 233.172 128.988, 233.788 129.369 C 234.340 129.710, 235.048 129.316, 235.364 128.494 C 236.026 126.767, 235.964 126.737, 234.143 127.890 M 92 141.409 C 92 141.599, 92.675 142.315, 93.500 143 C 94.365 143.718, 95 143.815, 95 143.229 C 95 142.671, 94.325 141.955, 93.500 141.638 C 92.675 141.322, 92 141.219, 92 141.409 M 273.658 143.449 C 273.287 144.416, 273.582 144.714, 274.545 144.344 C 275.339 144.040, 275.740 143.388, 275.435 142.895 C 274.669 141.655, 274.303 141.769, 273.658 143.449 M 92 146 C 92 146.550, 92.477 147, 93.059 147 C 93.641 147, 93.840 146.550, 93.500 146 C 93.160 145.450, 92.684 145, 92.441 145 C 92.198 145, 92 145.450, 92 146 M 249 146 C 249.825 146.533, 251.175 146.945, 252 146.914 C 252.989 146.878, 252.819 146.567, 251.500 146 C 248.751 144.819, 247.172 144.819, 249 146 M 98.324 153.285 C 98.036 153.751, 98.070 154.403, 98.400 154.733 C 98.730 155.063, 99 154.782, 99 154.108 C 99 153.434, 99.359 153.104, 99.798 153.375 C 100.237 153.646, 101.243 153.468, 102.035 152.978 C 103.111 152.314, 102.890 152.133, 101.161 152.263 C 99.889 152.359, 98.612 152.819, 98.324 153.285 M 249 155.492 C 249 155.527, 249.870 156.300, 250.933 157.211 C 252.716 158.737, 252.969 158.740, 254.183 157.241 C 255.147 156.052, 255.164 155.818, 254.250 156.367 C 253.563 156.780, 253 156.738, 253 156.273 C 253 155.809, 252.100 155.429, 251 155.429 C 249.900 155.429, 249 155.457, 249 155.492 M 167.269 162.693 C 168.242 162.947, 169.592 162.930, 170.269 162.656 C 170.946 162.382, 170.150 162.175, 168.500 162.195 C 166.850 162.215, 166.296 162.439, 167.269 162.693 M 206.564 171.293 C 206.940 172.279, 207.499 172.834, 207.807 172.526 C 208.115 172.219, 207.808 171.412, 207.124 170.733 C 206.136 169.753, 206.022 169.868, 206.564 171.293 M 89.079 176.583 C 89.127 177.748, 89.364 177.985, 89.683 177.188 C 89.972 176.466, 89.936 175.603, 89.604 175.271 C 89.272 174.939, 89.036 175.529, 89.079 176.583 M 192.500 176 C 192.160 176.550, 192.359 177, 192.941 177 C 193.523 177, 194 176.550, 194 176 C 194 175.450, 193.802 175, 193.559 175 C 193.316 175, 192.840 175.450, 192.500 176 M 142.813 176.683 C 143.534 176.972, 144.397 176.936, 144.729 176.604 C 145.061 176.272, 144.471 176.036, 143.417 176.079 C 142.252 176.127, 142.015 176.364, 142.813 176.683 M 209.507 183.989 C 209.157 184.555, 209.558 184.723, 210.448 184.382 C 212.180 183.717, 212.497 183, 211.059 183 C 210.541 183, 209.843 183.445, 209.507 183.989 M 205 188 C 205.825 188.533, 206.950 188.969, 207.500 188.969 C 208.050 188.969, 207.825 188.533, 207 188 C 206.175 187.467, 205.050 187.031, 204.500 187.031 C 203.950 187.031, 204.175 187.467, 205 188 M 232 191.892 C 232 192.566, 231.480 192.797, 230.845 192.405 C 230.101 191.945, 229.964 192.132, 230.458 192.933 C 231.004 193.815, 231.536 193.864, 232.296 193.104 C 232.885 192.515, 233.059 191.726, 232.683 191.350 C 232.308 190.974, 232 191.218, 232 191.892 M 89 193.500 C 89 194.325, 89.436 195, 89.969 195 C 90.501 195, 90.678 194.325, 90.362 193.500 C 90.045 192.675, 89.609 192, 89.393 192 C 89.177 192, 89 192.675, 89 193.500 M 220.490 193.016 C 220.144 193.575, 219.373 193.731, 218.776 193.362 C 218.161 192.981, 217.976 193.152, 218.349 193.756 C 219.186 195.110, 222.268 194.697, 222.779 193.163 C 223.256 191.733, 221.358 191.612, 220.490 193.016 M 177.750 194.662 C 178.438 194.940, 179.563 194.940, 180.250 194.662 C 180.938 194.385, 180.375 194.158, 179 194.158 C 177.625 194.158, 177.063 194.385, 177.750 194.662 M 202 198.383 C 202 198.594, 202.901 199.002, 204.001 199.290 C 205.102 199.578, 205.751 199.405, 205.442 198.907 C 204.904 198.036, 202 197.594, 202 198.383 M 230.459 208.067 C 230.096 208.653, 230.014 209.348, 230.276 209.610 C 230.538 209.872, 231.019 209.392, 231.345 208.543 C 232.021 206.781, 231.445 206.471, 230.459 208.067 M 165 208.558 C 168.716 209.367, 173.814 209.509, 173.371 208.791 C 173.102 208.356, 170.771 208.052, 168.191 208.116 C 165.611 208.180, 164.175 208.379, 165 208.558 M 190.333 234.544 C 190.333 235.345, 190.708 236, 191.167 236 C 191.625 236, 192 235.577, 192 235.059 C 192 234.541, 191.625 233.886, 191.167 233.603 C 190.708 233.320, 190.333 233.743, 190.333 234.544 M 172 237.059 C 172 237.641, 172.450 237.840, 173 237.500 C 173.550 237.160, 174 236.684, 174 236.441 C 174 236.198, 173.550 236, 173 236 C 172.450 236, 172 236.477, 172 237.059 M 187.750 237.662 C 188.438 237.940, 189.563 237.940, 190.250 237.662 C 190.938 237.385, 190.375 237.158, 189 237.158 C 187.625 237.158, 187.063 237.385, 187.750 237.662 M 149 285.393 C 149 285.609, 149.698 286.054, 150.552 286.382 C 151.442 286.723, 151.843 286.555, 151.493 285.989 C 150.906 285.038, 149 284.583, 149 285.393 M 182.226 295.579 C 183.176 296.570, 184.168 297.166, 184.431 296.903 C 184.694 296.640, 183.917 295.829, 182.705 295.100 C 180.598 293.835, 180.577 293.857, 182.226 295.579" stroke="none" fill="#84a4bc" fill-rule="evenodd"/><path d="M 188 1.049 C 188 1.485, 186.681 2.131, 185.069 2.485 C 181.754 3.213, 179.509 5.397, 180.473 6.956 C 180.828 7.530, 180.384 8, 179.488 8 C 177.523 8, 174.824 10.491, 175.767 11.434 C 176.137 11.803, 175.665 11.809, 174.720 11.446 C 173.732 11.067, 173 11.257, 173 11.893 C 173 12.502, 173.419 13, 173.930 13 C 174.442 13, 175.005 14.012, 175.180 15.250 C 175.356 16.488, 176.512 17.944, 177.750 18.487 C 180.550 19.716, 180.712 20.999, 177.976 20.284 C 176.863 19.993, 174.843 18.347, 173.487 16.627 C 172.001 14.741, 171.015 14.095, 171.005 15 C 170.995 15.825, 170.299 17.820, 169.458 19.434 C 167.774 22.663, 168.237 25.577, 170.243 24.371 C 170.980 23.929, 170.879 24.383, 170 25.469 C 168.598 27.202, 168.681 27.288, 171.274 26.795 C 172.799 26.505, 174.295 26.669, 174.598 27.159 C 174.901 27.649, 174.778 27.985, 174.324 27.906 C 172.221 27.541, 171 28.126, 171 29.500 C 171 30.325, 171.675 31, 172.500 31 C 173.325 31, 174 31.505, 174 32.122 C 174 32.854, 174.589 32.767, 175.692 31.872 C 176.842 30.940, 177.143 30.901, 176.633 31.750 C 176.152 32.550, 176.481 33, 177.548 33 C 178.676 33, 179.012 33.526, 178.590 34.627 C 178.246 35.521, 178.478 36.871, 179.105 37.627 C 179.992 38.695, 179.885 39, 178.622 39 C 177.730 39, 177 39.398, 177 39.883 C 177 40.369, 176.100 41.002, 175 41.290 C 173.900 41.577, 173 41.378, 173 40.847 C 173 40.316, 172.581 40.141, 172.069 40.457 C 171.557 40.774, 170.851 40.568, 170.500 40 C 170.149 39.432, 169.442 39.227, 168.928 39.544 C 167.470 40.446, 169.934 44.239, 171.570 43.611 C 172.596 43.218, 173.166 44.188, 173.635 47.120 C 173.991 49.348, 174.962 51.432, 175.792 51.750 C 178.542 52.806, 187.787 52.179, 189.613 50.814 C 191.093 49.709, 190.752 45.431, 189.209 45.750 C 188.544 45.888, 188 45.544, 188 44.987 C 188 44.362, 186.752 44.475, 184.750 45.280 C 182.963 45.999, 180.938 46.511, 180.250 46.418 C 179.563 46.326, 178.550 46.194, 178 46.125 C 177.450 46.056, 177 45.073, 177 43.941 C 177 42.809, 177.440 42.154, 177.977 42.486 C 178.514 42.818, 180.862 42.576, 183.195 41.948 C 186.365 41.094, 187.531 41.093, 187.815 41.945 C 188.097 42.790, 188.556 42.784, 189.597 41.919 C 191.136 40.642, 191.571 36.529, 190.069 37.457 C 189.557 37.774, 188.813 37.506, 188.415 36.862 C 187.979 36.157, 188.123 35.958, 188.776 36.362 C 190.502 37.428, 191.307 35.079, 189.836 33.269 C 188.687 31.856, 188.731 31.712, 190.151 32.244 C 192.018 32.942, 193.571 29.171, 192.045 27.645 C 191.145 26.745, 192.746 22, 193.948 22 C 194.293 22, 194.682 20.588, 194.814 18.862 C 194.945 17.136, 195.375 15.223, 195.770 14.612 C 196.587 13.344, 198.889 5.134, 198.956 3.250 C 198.980 2.563, 198.325 2, 197.500 2 C 196.675 2, 196 1.655, 196 1.233 C 196 0.811, 194.200 0.419, 192 0.361 C 189.800 0.304, 188 0.613, 188 1.049 M 184.600 16.600 C 184.244 17.527, 184.178 18.511, 184.453 18.786 C 184.728 19.061, 185.244 18.527, 185.600 17.600 C 185.956 16.673, 186.022 15.689, 185.747 15.414 C 185.472 15.139, 184.956 15.673, 184.600 16.600 M 181 19.441 C 181 20.234, 181.423 21.143, 181.939 21.463 C 182.456 21.782, 182.810 21.134, 182.727 20.022 C 182.555 17.738, 181 17.215, 181 19.441 M 165 22.882 C 165 23.432, 165.450 24.160, 166 24.500 C 166.550 24.840, 167 24.668, 167 24.118 C 167 23.568, 166.550 22.840, 166 22.500 C 165.450 22.160, 165 22.332, 165 22.882 M 178 22.941 C 178 23.459, 178.445 24.157, 178.989 24.493 C 179.555 24.843, 179.723 24.442, 179.382 23.552 C 178.717 21.820, 178 21.503, 178 22.941 M 159 27.441 C 159 28.234, 159.472 29.174, 160.049 29.530 C 160.761 29.970, 160.706 30.649, 159.879 31.645 C 159.209 32.453, 159.075 33.034, 159.581 32.938 C 161.822 32.512, 162.894 33.114, 162.362 34.500 C 161.958 35.551, 162.440 36, 163.972 36 C 165.915 36, 166.081 35.638, 165.463 32.750 C 164.436 27.955, 159 23.490, 159 27.441 M 180.211 27.601 C 179.501 28.370, 179.362 29, 179.902 29 C 180.940 29, 182.443 27.098, 181.850 26.534 C 181.658 26.351, 180.920 26.831, 180.211 27.601 M 151.912 29.282 C 151.039 29.952, 150.538 31.134, 150.799 31.909 C 151.125 32.879, 150.763 33.123, 149.636 32.691 C 148.736 32.345, 148 32.499, 148 33.031 C 148 33.564, 148.450 34, 149 34 C 149.550 34, 150 34.675, 150 35.500 C 150 37.583, 151.728 37.378, 152.918 35.153 C 153.605 33.869, 153.540 32.937, 152.703 32.094 C 151.763 31.147, 151.867 31.021, 153.177 31.520 C 154.496 32.022, 154.738 31.715, 154.310 30.079 C 154.011 28.936, 153.707 28.014, 153.633 28.032 C 153.560 28.049, 152.786 28.612, 151.912 29.282 M 166.747 29.586 C 166.375 29.959, 166.581 31.216, 167.204 32.381 C 167.828 33.547, 168.232 34.725, 168.103 35 C 167.973 35.275, 168.742 36.081, 169.811 36.791 C 171.442 37.874, 171.850 37.833, 172.346 36.541 C 172.719 35.567, 172.375 35, 171.410 35 C 170.569 35, 170.098 34.650, 170.363 34.222 C 171.024 33.152, 167.588 28.746, 166.747 29.586 M 180 33.711 C 180 34.285, 180.787 35.373, 181.750 36.128 C 183.369 37.397, 183.390 37.350, 182.033 35.500 C 181.226 34.400, 180.439 33.313, 180.283 33.083 C 180.127 32.854, 180 33.137, 180 33.711 M 140.473 35.669 C 139.388 36.476, 137.825 37.536, 137 38.023 C 135.744 38.766, 135.929 39.314, 138.143 41.396 C 140.615 43.721, 142 43.857, 142 41.774 C 142 41.284, 141.550 41.160, 141 41.500 C 139.481 42.439, 139.805 40.407, 141.383 39.097 C 143.428 37.400, 144.116 40.002, 142.427 43.050 C 140.910 45.791, 140.618 47.350, 141.750 46.664 C 142.162 46.414, 143.080 46.838, 143.789 47.605 C 144.499 48.372, 144.781 49, 144.417 49 C 144.053 49, 144.277 49.629, 144.916 50.399 C 145.837 51.509, 146.688 51.567, 149.038 50.679 C 150.667 50.065, 152 49.155, 152 48.658 C 152 48.162, 152.645 48.290, 153.433 48.944 C 154.588 49.903, 155.193 49.636, 156.548 47.567 C 158.441 44.677, 160 44.222, 160 46.559 C 160 47.416, 159.550 47.840, 159 47.500 C 158.450 47.160, 158 47.614, 158 48.509 C 158 49.910, 158.403 49.849, 160.907 48.066 C 163.779 46.021, 163.808 46.020, 163.290 47.998 C 162.885 49.548, 163.258 50, 164.942 50 C 166.139 50, 166.840 49.550, 166.500 49 C 166.160 48.450, 166.569 48, 167.410 48 C 168.357 48, 168.718 48.570, 168.362 49.500 C 168.045 50.325, 168.311 51, 168.952 51 C 169.593 51, 169.840 51.450, 169.500 52 C 168.746 53.220, 170.011 53.279, 171.857 52.110 C 174.086 50.697, 172.287 47, 169.370 47 C 167.592 47, 166.925 46.497, 167.052 45.250 C 167.150 44.288, 167.172 42.825, 167.100 42 C 166.993 40.773, 166.813 40.747, 166.110 41.857 C 165.510 42.803, 165.043 42.878, 164.566 42.107 C 164.190 41.498, 163.432 41, 162.882 41 C 162.332 41, 162.160 41.450, 162.500 42 C 162.840 42.550, 162.668 43, 162.118 43 C 161.568 43, 160.840 42.550, 160.500 42 C 159.782 40.838, 157.944 40.645, 158.118 41.750 C 158.468 43.961, 157.790 45, 156 45 C 154.516 45, 154 44.333, 154 42.417 C 154 40.793, 153.536 39.989, 152.750 40.253 C 151.225 40.765, 151.014 43.956, 152.371 46 C 152.919 46.825, 151.952 46.029, 150.222 44.231 C 148.387 42.323, 147.314 40.345, 147.646 39.481 C 147.958 38.666, 147.689 38, 147.048 38 C 146.407 38, 146.160 38.450, 146.500 39 C 146.840 39.550, 146.669 40, 146.121 40 C 145.573 40, 145.192 39.100, 145.275 38 C 145.358 36.900, 145.855 36, 146.379 36 C 147.904 36, 146.453 34.972, 144.358 34.569 C 143.307 34.366, 141.558 34.861, 140.473 35.669 M 175 37.559 C 175 38.416, 175.450 38.840, 176 38.500 C 176.550 38.160, 177 37.459, 177 36.941 C 177 36.423, 176.550 36, 176 36 C 175.450 36, 175 36.702, 175 37.559 M 63.500 37.646 C 62.950 37.840, 62.540 41.144, 62.588 44.988 C 62.660 50.750, 62.439 51.779, 61.325 50.854 C 60.582 50.238, 60.092 49.015, 60.237 48.137 C 60.432 46.952, 59.388 46.387, 56.179 45.944 C 52.457 45.429, 51.918 45.580, 52.298 47.031 C 52.540 47.958, 52.363 49.387, 51.904 50.208 C 50.990 51.840, 55.389 56.495, 56.939 55.537 C 57.407 55.248, 58.057 55.707, 58.384 56.558 C 58.724 57.443, 58.555 57.843, 57.989 57.493 C 57.445 57.157, 57 57.632, 57 58.549 C 57 59.891, 56.463 60.064, 54.250 59.435 C 47.135 57.412, 42 58.536, 42 62.115 C 42 63.883, 41.579 64.066, 38.882 63.474 C 36.489 62.949, 35.874 63.105, 36.239 64.145 C 36.501 64.890, 37.454 65.438, 38.358 65.361 C 39.331 65.279, 40 65.965, 40 67.044 C 40 68.046, 40.926 69.159, 42.059 69.519 C 43.984 70.130, 44.016 70.326, 42.559 72.551 C 40.586 75.562, 40.560 77.383, 42.500 76.638 C 43.842 76.123, 44.456 77.114, 44.118 79.250 C 44.053 79.662, 44.675 80, 45.500 80 C 47.378 80, 47.434 81.395, 45.616 82.904 C 44 84.245, 34 85.054, 34 83.844 C 34 83.392, 32.875 83.116, 31.500 83.229 C 30.125 83.343, 29 84.033, 29 84.762 C 29 85.491, 29.650 85.955, 30.444 85.794 C 31.239 85.632, 32.622 86.400, 33.518 87.500 C 34.415 88.600, 34.883 88.969, 34.558 88.319 C 33.827 86.857, 35.627 85.588, 36.478 86.965 C 36.836 87.544, 39.486 87.741, 42.797 87.435 C 45.934 87.144, 50.075 86.804, 52 86.679 C 54.695 86.504, 55.432 86.054, 55.206 84.726 C 55.005 83.544, 55.577 83, 57.022 83 C 58.182 83, 60.002 82.534, 61.066 81.965 C 63.721 80.544, 63.524 82.408, 60.829 84.197 C 58.234 85.920, 59.245 88.431, 62.220 87.653 C 63.317 87.366, 65.291 87.540, 66.607 88.041 C 68.622 88.807, 69 88.644, 69 87.007 C 69 85.675, 69.481 85.247, 70.526 85.648 C 71.702 86.100, 71.788 86.550, 70.903 87.617 C 70.006 88.698, 70.110 89, 71.378 89 C 72.270 89, 73 89.439, 73 89.976 C 73 91.676, 80.150 97.513, 81.860 97.208 C 83.147 96.979, 83.209 97.114, 82.147 97.831 C 80.396 99.014, 82.475 103.408, 84.300 102.381 C 85.214 101.867, 85.223 102.006, 84.340 102.963 C 83.509 103.864, 83.469 105.048, 84.200 107.144 C 84.761 108.753, 85.011 111.163, 84.755 112.500 C 84.500 113.837, 84.668 115.058, 85.128 115.215 C 85.589 115.372, 86.115 116.870, 86.297 118.545 C 86.701 122.250, 87.818 124.230, 89.069 123.457 C 89.581 123.141, 90.057 123.246, 90.128 123.691 C 90.671 127.137, 90.611 129, 89.958 129 C 89.534 129, 89.708 130.121, 90.344 131.492 C 90.980 132.863, 91.733 133.988, 92.017 133.992 C 92.302 133.996, 92.459 135.606, 92.367 137.570 C 92.260 139.832, 92.712 141.336, 93.599 141.677 C 94.370 141.972, 95 142.686, 95 143.262 C 95 143.838, 94.177 143.565, 93.171 142.655 C 89.860 139.658, 88.571 141.428, 91.750 144.607 C 92.713 145.570, 93.538 146.614, 93.584 146.929 C 93.630 147.243, 94.228 148.850, 94.913 150.500 C 95.597 152.150, 96.221 154.625, 96.299 156 C 96.477 159.159, 93.842 168, 92.723 168 C 92.260 168, 92.138 168.414, 92.450 168.919 C 92.763 169.425, 92.381 170.476, 91.602 171.255 C 90.823 172.035, 90.055 174.208, 89.896 176.086 C 89.738 177.964, 88.926 180.315, 88.094 181.311 C 87.068 182.538, 86.926 183.344, 87.653 183.811 C 88.275 184.210, 88.412 185.342, 87.979 186.500 C 87.488 187.812, 87.907 189.618, 89.197 191.750 C 90.474 193.862, 90.741 195, 89.959 195 C 89.065 195, 89.042 195.346, 89.869 196.342 C 90.481 197.080, 90.774 197.893, 90.518 198.148 C 89.227 199.440, 92.600 206.540, 96.328 210.376 C 99.291 213.425, 100.628 215.703, 100.803 218 C 100.941 219.802, 101.361 221.776, 101.738 222.386 C 102.115 222.996, 102.526 224.832, 102.651 226.466 C 102.775 228.100, 103.550 229.929, 104.372 230.530 C 106.802 232.307, 107.457 236.645, 105.464 237.760 C 103.987 238.587, 104.319 239.162, 107.959 242.087 C 111.542 244.967, 112.076 245.871, 111.599 248.257 C 111.187 250.316, 111.582 251.508, 113.098 252.777 C 114.231 253.724, 115.870 255.850, 116.740 257.500 C 117.636 259.200, 118.506 259.955, 118.747 259.244 C 118.980 258.553, 119.577 258.239, 120.074 258.546 C 121.572 259.472, 119.812 255.629, 117.874 253.743 C 116.881 252.776, 116.309 251.359, 116.602 250.594 C 116.896 249.829, 116.675 248.917, 116.112 248.569 C 115.548 248.221, 115.319 247.333, 115.601 246.597 C 115.884 245.860, 115.382 244.525, 114.486 243.629 C 113.590 242.733, 113.098 242, 113.393 242 C 113.688 242, 113.051 239.952, 111.978 237.450 C 110.906 234.947, 110.466 233.170, 111.002 233.502 C 111.553 233.842, 111.719 233.431, 111.384 232.558 C 111.057 231.707, 110.431 231.233, 109.993 231.505 C 108.958 232.144, 107.265 227.021, 107.762 224.754 C 108.065 223.374, 108.542 223.220, 110.039 224.021 C 112.224 225.190, 114.341 231.948, 113.340 234.557 C 112.933 235.618, 113.056 236.084, 113.647 235.718 C 114.189 235.383, 115.480 236.547, 116.515 238.304 C 117.551 240.062, 119.378 242.561, 120.577 243.858 C 121.852 245.239, 122.551 247.001, 122.261 248.108 C 121.927 249.388, 122.290 250, 123.383 250 C 124.273 250, 125 250.620, 125 251.378 C 125 252.135, 125.736 253.366, 126.636 254.113 C 130.529 257.344, 136.194 269, 133.871 269 C 133.327 269, 133.160 269.450, 133.500 270 C 133.840 270.550, 133.651 271, 133.080 271 C 132.391 271, 132.425 271.838, 133.182 273.500 C 133.808 274.875, 134.624 276, 134.994 276 C 135.364 276, 136.979 277.337, 138.583 278.972 C 140.187 280.607, 142.175 281.976, 143 282.016 C 143.825 282.055, 146.300 283.173, 148.500 284.500 C 152.559 286.950, 160.675 290.974, 162.500 291.442 C 163.050 291.583, 164.269 292.032, 165.209 292.440 C 166.149 292.848, 168.624 292.600, 170.709 291.888 C 175.374 290.296, 176.476 290.499, 180.705 293.724 C 182.547 295.129, 184.176 296.104, 184.325 295.889 C 184.473 295.675, 185.128 294.260, 185.779 292.744 C 186.430 291.228, 187.309 290.044, 187.731 290.112 C 188.154 290.181, 189.366 290.184, 190.424 290.118 C 192.270 290.005, 192.262 289.908, 190.220 287.735 C 188.201 285.585, 188.434 282.659, 190.592 283.066 C 193.091 283.537, 196.019 282.838, 197.421 281.436 C 198.281 280.576, 199.438 280.153, 199.992 280.495 C 200.547 280.838, 201.057 280.304, 201.128 279.309 C 201.443 274.836, 201.785 273.271, 202.900 271.187 C 203.556 269.962, 203.820 268.518, 203.487 267.979 C 202.689 266.688, 197.293 266.717, 196.490 268.016 C 196.144 268.575, 195.452 268.779, 194.952 268.470 C 193.087 267.318, 190.260 270.010, 189.698 273.472 C 189.382 275.424, 188.532 277.587, 187.811 278.279 C 186.209 279.817, 174.820 282.267, 174.052 281.239 C 173.748 280.832, 172.827 280.351, 172.003 280.168 C 169.899 279.701, 168 277.976, 168 276.533 C 168 275.860, 167.100 274.495, 166 273.500 C 164.900 272.505, 164 270.672, 164 269.428 C 164 268.184, 163.599 267.017, 163.109 266.833 C 162.608 266.646, 162.559 264.314, 162.996 261.500 C 163.424 258.750, 163.623 255.700, 163.439 254.723 C 163.255 253.746, 163.484 253.181, 163.947 253.468 C 164.411 253.754, 165.043 253.331, 165.352 252.526 C 165.660 251.722, 165.485 250.799, 164.961 250.476 C 164.438 250.153, 164.120 248.382, 164.255 246.542 C 164.390 244.701, 164.868 243.421, 165.317 243.698 C 165.767 243.975, 166.370 243.302, 166.657 242.202 C 166.960 241.044, 167.878 240.317, 168.840 240.473 C 171.093 240.839, 173.004 239.173, 172.334 237.427 C 172.032 236.642, 172.311 236, 172.952 236 C 173.593 236, 173.793 236.526, 173.395 237.170 C 172.885 237.994, 173.237 238.109, 174.586 237.557 C 178.004 236.158, 183.922 236.201, 185.110 237.633 C 185.734 238.385, 186.977 238.993, 187.872 238.985 C 189.297 238.971, 189.313 238.836, 188 237.900 C 186.866 237.092, 187.353 236.970, 190 237.399 C 192.695 237.835, 193.097 237.728, 191.750 236.933 C 188.510 235.021, 189.773 233.385, 194.686 233.131 C 197.263 232.998, 199.724 232.670, 200.156 232.403 C 200.588 232.137, 202.192 232.557, 203.721 233.338 C 205.846 234.423, 206.942 234.492, 208.379 233.629 C 209.809 232.769, 210.366 232.798, 210.712 233.750 C 210.962 234.437, 211.804 235, 212.583 235 C 213.363 235, 214.051 235.338, 214.114 235.750 C 214.177 236.162, 214.381 237.816, 214.567 239.423 C 214.927 242.522, 221.452 249.909, 223.880 249.967 C 226.206 250.023, 224.625 242.088, 221.138 236.206 C 219.412 233.294, 218 229.631, 218 228.066 C 218 225.056, 225.108 214.439, 228.903 211.780 C 230.049 210.977, 230.701 210.034, 230.351 209.684 C 230.001 209.335, 230.284 208.362, 230.980 207.524 C 231.914 206.399, 231.936 206, 231.063 206 C 230.414 206, 230.172 205.530, 230.527 204.956 C 230.882 204.382, 230.662 203.297, 230.038 202.545 C 229.258 201.605, 229.231 200.975, 229.951 200.530 C 230.528 200.174, 230.993 199.346, 230.985 198.691 C 230.974 197.879, 230.701 197.924, 230.124 198.834 C 229.442 199.909, 229.161 199.863, 228.675 198.596 C 228.343 197.731, 228.393 197.072, 228.786 197.130 C 230.694 197.415, 231.667 196.864, 231.667 195.500 C 231.667 194.675, 231.292 194, 230.833 194 C 230.375 194, 230 193.523, 230 192.941 C 230 192.359, 230.437 192.152, 230.971 192.482 C 231.505 192.812, 232.242 191.882, 232.610 190.416 C 232.978 188.950, 234.608 186.481, 236.232 184.929 C 238.125 183.120, 238.903 181.639, 238.400 180.804 C 237.780 179.773, 237.961 179.780, 239.264 180.836 C 240.949 182.202, 243 181.678, 243 179.882 C 243 179.332, 242.597 179.131, 242.105 179.435 C 241.092 180.061, 240 177.756, 240 174.995 C 240 173.982, 242.925 170.242, 246.500 166.685 C 252.635 160.579, 254.805 159.232, 251.532 163.559 C 249.630 166.074, 249.609 168.636, 251.485 169.356 C 252.392 169.704, 253.410 169.064, 254.102 167.713 C 254.724 166.496, 257.066 163.597, 259.305 161.270 C 263.415 157, 265.083 153.371, 262.474 154.372 C 261.582 154.714, 261.297 154.391, 261.658 153.449 C 261.964 152.652, 261.768 152, 261.224 152 C 259.814 152, 259.066 156.842, 260.395 157.363 C 261.003 157.601, 260.476 157.745, 259.225 157.683 C 257.811 157.613, 257.137 157.085, 257.444 156.285 C 258.027 154.767, 256.400 154.543, 255.490 156.016 C 255.144 156.575, 254.330 156.767, 253.681 156.442 C 253.031 156.117, 253.391 156.573, 254.481 157.455 C 256.441 159.041, 256.440 159.055, 254.328 158.732 C 251.094 158.239, 249.160 156.179, 249.614 153.713 C 249.839 152.496, 249.755 152.063, 249.428 152.750 C 249.101 153.438, 248.351 154, 247.762 154 C 247.172 154, 247.529 153.073, 248.555 151.939 C 250.142 150.185, 250.204 149.744, 248.971 148.982 C 246.777 147.626, 244.383 148.328, 241.040 151.307 C 237.372 154.575, 235.862 154.862, 238.711 151.750 C 239.843 150.513, 241.070 148.511, 241.436 147.301 C 242.139 144.982, 245.812 143.187, 246.875 144.643 C 247.219 145.114, 248.175 145.555, 249 145.623 C 249.825 145.690, 251.188 145.915, 252.030 146.123 C 252.871 146.330, 253.658 146.050, 253.780 145.500 C 254.003 144.486, 253.758 144.398, 249.750 144.060 C 248.146 143.925, 249.007 143.277, 252.750 141.801 C 255.637 140.663, 258.056 139.117, 258.125 138.366 C 258.194 137.615, 258.306 136.534, 258.375 135.964 C 258.500 134.927, 260.917 133.044, 262.159 133.015 C 262.904 132.998, 262.255 142.778, 261.422 144.126 C 261.125 144.607, 261.385 145, 262 145 C 262.615 145, 262.840 145.450, 262.500 146 C 262.160 146.550, 262.190 147.498, 262.566 148.107 C 263.060 148.907, 263.448 148.893, 263.965 148.057 C 264.358 147.420, 265.652 146.827, 266.840 146.737 C 268.028 146.648, 269 146.220, 269 145.787 C 269 145.354, 269.675 145, 270.500 145 C 271.325 145, 272 145.702, 272 146.559 C 272 147.416, 272.481 147.821, 273.068 147.458 C 273.656 147.095, 273.922 146.240, 273.661 145.558 C 273.399 144.876, 273.593 143.684, 274.093 142.909 C 274.809 141.797, 275.133 141.984, 275.629 143.798 C 276.414 146.664, 279.661 146.356, 279.158 143.464 C 278.971 142.384, 278.352 141.331, 277.783 141.125 C 277.215 140.919, 275.794 139.794, 274.625 138.625 C 273.456 137.456, 272.050 136.655, 271.500 136.845 C 268.863 137.754, 267.004 137.802, 267.532 136.948 C 267.854 136.426, 267.503 136, 266.752 136 C 265.861 136, 265.456 134.980, 265.588 133.072 C 265.746 130.786, 265.448 130.274, 264.231 130.741 C 263.302 131.098, 262.929 130.924, 263.308 130.310 C 264.436 128.486, 261.645 124.016, 259.372 124.008 C 258.202 124.004, 256.724 123.372, 256.087 122.604 C 255.442 121.828, 253.391 121.281, 251.464 121.372 C 249.559 121.461, 248 121.220, 248 120.835 C 248 120.450, 247.109 119.852, 246.020 119.506 C 244.931 119.161, 244.144 118.549, 244.270 118.148 C 244.397 117.746, 241.688 114.539, 238.250 111.021 L 232 104.626 231.985 108.563 C 231.965 113.730, 230.925 115.207, 227.719 114.625 C 226.287 114.366, 224.898 114.580, 224.633 115.102 C 224.367 115.623, 224.269 115.476, 224.414 114.775 C 224.559 114.074, 224.093 112.095, 223.378 110.377 C 222.664 108.659, 222.399 106.909, 222.790 106.486 C 223.180 106.064, 222.286 106.010, 220.803 106.365 C 219.016 106.793, 217.835 106.552, 217.303 105.652 C 216.107 103.626, 212 101.630, 212 103.074 C 212 103.792, 210.705 104.068, 208.529 103.814 C 204.754 103.373, 203.414 104.834, 204.882 107.790 C 206.976 112.005, 207.951 116.449, 206.992 117.408 C 205.331 119.069, 205.865 120.489, 208.801 122.223 C 212.756 124.560, 213.136 130.584, 209.541 133.961 C 207.617 135.769, 207.286 136.640, 208.135 137.663 C 208.745 138.398, 208.959 139, 208.609 139 C 208.259 139, 208.654 140.630, 209.487 142.622 C 211.322 147.014, 211.343 147.324, 209.750 146.367 C 209.021 145.929, 209.126 146.402, 210 147.500 C 210.825 148.536, 210.976 149.070, 210.335 148.686 C 209.695 148.302, 208.971 148.553, 208.726 149.244 C 208.433 150.069, 207.375 149.539, 205.640 147.698 C 202.624 144.498, 202.372 143.822, 204.500 144.638 C 205.325 144.955, 206 144.716, 206 144.107 C 206 143.498, 205.145 143, 204.099 143 C 202.728 143, 201.951 141.956, 201.308 139.250 C 200.482 135.773, 200.154 135.500, 196.802 135.500 C 194.814 135.500, 192.845 135.162, 192.427 134.750 C 192.009 134.338, 190.842 134, 189.833 134 C 188.825 134, 188 133.539, 188 132.975 C 188 130.798, 179.049 128.303, 177.901 130.160 C 177.457 130.879, 176.872 129.832, 176.444 127.552 C 175.976 125.058, 175.085 123.574, 173.864 123.254 C 171.574 122.655, 171.270 116.488, 173.382 113.473 C 174.141 112.388, 174.856 111.173, 174.969 110.773 C 175.083 110.373, 175.413 109.136, 175.704 108.023 C 175.995 106.910, 176.856 106, 177.617 106 C 178.377 106, 179 105.325, 179 104.500 C 179 103.675, 179.477 103, 180.059 103 C 180.641 103, 180.840 102.550, 180.500 102 C 179.949 101.109, 181.232 100.574, 183.214 100.869 C 183.606 100.928, 184.506 99.069, 185.213 96.738 L 186.500 92.500 187.057 96 C 187.363 97.925, 187.251 99.927, 186.807 100.450 C 185.510 101.977, 185.876 102.985, 187.500 102.362 C 188.325 102.045, 189 102.270, 189 102.862 C 189 104.579, 191.864 103.005, 192.524 100.925 C 193.084 99.159, 193.283 99.140, 195.562 100.632 C 197.881 102.152, 198 102.127, 198 100.115 C 198 98.882, 197.361 98, 196.469 98 C 195.626 98, 194.679 97.328, 194.364 96.506 C 194.048 95.684, 193.419 95.241, 192.964 95.522 C 192.510 95.803, 191.851 95.568, 191.500 95 C 191.149 94.432, 190.443 94.226, 189.931 94.543 C 189.419 94.859, 189 94.690, 189 94.166 C 189 93.642, 189.704 92.944, 190.563 92.614 C 191.423 92.284, 191.839 91.548, 191.487 90.979 C 191.135 90.410, 191.838 89.142, 193.048 88.162 C 195.153 86.457, 195.179 86.247, 193.639 83.269 C 192.742 81.534, 192.454 80.011, 192.989 79.828 C 193.517 79.648, 193.684 78.493, 193.361 77.261 C 193.037 76.030, 192.374 75.269, 191.886 75.570 C 191.399 75.872, 191 75.390, 191 74.500 C 191 73.567, 191.471 73.173, 192.112 73.569 C 192.723 73.947, 193.616 73.636, 194.096 72.878 C 194.819 71.737, 194.978 71.758, 195.020 73 C 195.051 73.904, 195.633 73.506, 196.485 72 L 197.900 69.500 198.578 72.766 C 199.161 75.570, 199.477 75.853, 200.815 74.766 C 202.135 73.695, 202.274 73.769, 201.719 75.250 C 201.287 76.401, 201.565 77.043, 202.531 77.125 C 205.364 77.366, 205.840 77.507, 206.667 78.347 C 207.125 78.813, 206.150 79.038, 204.500 78.847 C 201.874 78.543, 201.500 78.812, 201.500 81 C 201.500 82.556, 202.067 83.500, 203 83.500 C 203.825 83.500, 204.390 82.808, 204.255 81.962 C 203.958 80.097, 208.091 79.529, 209.177 81.286 C 209.583 81.943, 209.229 83.528, 208.391 84.807 C 207.378 86.353, 207.191 87.531, 207.833 88.317 C 209.085 89.850, 207.205 91.573, 204.456 91.412 C 202.895 91.321, 202.422 91.889, 202.456 93.813 C 202.502 96.464, 204.360 97.845, 205.467 96.053 C 206.745 93.985, 211.533 94.980, 214.839 98 C 218.218 101.087, 219.633 101.834, 218.438 99.900 C 217.961 99.127, 218.314 99.088, 219.629 99.767 C 221.947 100.966, 228 101.163, 228 100.040 C 228 99.586, 227.296 98.944, 226.437 98.614 C 225.577 98.284, 225.154 97.560, 225.497 97.004 C 225.916 96.326, 226.751 96.332, 228.038 97.020 C 229.586 97.849, 229.843 97.753, 229.371 96.523 C 229.049 95.685, 228.272 94.993, 227.643 94.985 C 226.930 94.975, 227.001 94.652, 227.832 94.125 C 228.874 93.464, 228.613 92.686, 226.633 90.549 C 225.241 89.047, 223.697 88.069, 223.202 88.375 C 222.219 88.983, 219.340 84.327, 220.179 83.488 C 220.463 83.204, 221.847 83.878, 223.255 84.986 C 226.580 87.601, 227.981 87.533, 228.082 84.750 C 228.127 83.513, 228.371 81.239, 228.624 79.697 C 228.938 77.775, 228.677 76.961, 227.791 77.107 C 227.081 77.225, 225.150 76.726, 223.500 75.999 C 221.850 75.272, 220.116 74.765, 219.646 74.873 C 219.177 74.981, 217.901 74.786, 216.812 74.440 C 215.280 73.954, 214.972 73.247, 215.455 71.322 C 215.908 69.520, 215.746 69.039, 214.870 69.580 C 214.058 70.082, 213.854 69.822, 214.250 68.790 C 214.909 67.074, 211.848 65.015, 208.232 64.743 C 207.005 64.650, 206 63.947, 206 63.180 C 206 62.379, 205.389 62.021, 204.564 62.337 C 203.774 62.640, 202.015 62.013, 200.656 60.944 C 199.297 59.875, 197.581 58.993, 196.842 58.985 C 195.755 58.972, 195.747 58.813, 196.797 58.146 C 197.860 57.472, 197.860 57.131, 196.797 56.259 C 194.670 54.515, 190.451 54.275, 190.806 55.919 C 191.061 57.100, 190.848 57.119, 189.538 56.031 C 188.220 54.937, 187.627 55.028, 185.907 56.584 C 184.616 57.752, 184.012 59.280, 184.281 60.692 C 184.518 61.928, 184.326 62.702, 183.856 62.411 C 182.677 61.682, 182.778 58.255, 184 57.500 C 185.434 56.613, 185.233 55, 183.689 55 C 180.833 55, 178.390 58.685, 178.148 63.358 C 178 66.225, 178.330 68, 179.013 68 C 179.621 68, 179.850 68.434, 179.523 68.964 C 178.772 70.178, 182.760 74.266, 183.967 73.520 C 186.148 72.172, 187.455 79.402, 185.402 81.456 C 184.122 82.735, 184.046 83.351, 185.023 84.528 C 185.804 85.469, 185.861 86, 185.181 86 C 183.696 86, 182.613 83.988, 182.552 81.113 C 182.496 78.509, 180 76.792, 180 79.358 C 180 80.196, 179.535 81.170, 178.966 81.521 C 178.312 81.925, 178.111 81.172, 178.419 79.474 C 178.788 77.439, 178.450 76.669, 177.022 76.296 C 175.986 76.025, 175.342 75.273, 175.591 74.624 C 175.839 73.976, 175.183 71.678, 174.132 69.517 C 172.200 65.545, 172.339 63.325, 174.633 61.500 C 175.325 60.950, 176.189 59.263, 176.554 57.750 C 177.063 55.638, 176.844 54.971, 175.608 54.875 C 174.724 54.806, 173.438 54.666, 172.750 54.564 C 170.569 54.238, 169.139 56.035, 169.592 58.533 C 169.929 60.395, 169.676 60.813, 168.485 60.356 C 167.616 60.023, 167.162 59.049, 167.447 58.132 C 168.433 54.958, 166.654 53.931, 163.620 55.921 C 161.897 57.051, 161.234 58.026, 161.905 58.441 C 162.507 58.814, 163 59.597, 163 60.181 C 163 60.882, 162.518 60.845, 161.589 60.074 C 158.579 57.576, 158.984 61.098, 162.162 65.052 C 164.739 68.258, 165.553 68.774, 166.005 67.486 C 166.320 66.587, 166.982 65.898, 167.476 65.953 C 167.970 66.009, 168.482 65.326, 168.612 64.436 C 168.919 62.344, 169.655 61.632, 170.349 62.755 C 170.651 63.244, 170.246 64.900, 169.449 66.436 C 167.260 70.655, 167.600 74.448, 170.296 75.891 C 172.946 77.309, 173.224 80.478, 170.976 83.649 L 169.453 85.799 168.338 83.437 C 167.725 82.137, 167.511 81.111, 167.862 81.156 C 171.743 81.649, 172.051 80.897, 169.154 78 C 165.774 74.620, 165 74.341, 165 76.500 C 165 77.325, 164.325 78, 163.500 78 C 161.225 78, 161.707 79.690, 164.164 80.333 C 165.883 80.782, 166.091 81.186, 165.173 82.291 C 164.537 83.057, 164.201 83.868, 164.425 84.092 C 165.126 84.793, 159.614 84.441, 157.250 83.633 C 156.012 83.211, 155 82.393, 155 81.816 C 155 81.239, 154.127 80.995, 153.060 81.274 C 151.399 81.709, 151.283 81.519, 152.257 79.960 C 153.276 78.328, 153.728 78.277, 156.591 79.474 C 159.764 80.799, 159.786 80.788, 159.591 77.970 C 159.483 76.409, 159.643 75.155, 159.947 75.184 C 161.752 75.356, 161.544 74.698, 158.984 72.138 C 156.513 69.667, 156.156 68.609, 156.371 64.388 C 156.509 61.700, 156.819 58.825, 157.060 58 C 157.737 55.693, 152.201 55.790, 151.469 58.098 C 151.101 59.258, 150.324 59.678, 149.285 59.279 C 148.211 58.867, 147.913 59.051, 148.395 59.830 C 148.793 60.474, 148.690 61, 148.166 61 C 147.642 61, 146.936 60.274, 146.595 59.387 C 146.110 58.124, 145.671 58.028, 144.567 58.945 C 143.416 59.900, 143.256 59.737, 143.695 58.057 C 144.001 56.888, 143.751 56, 143.117 56 C 142.502 56, 142.071 55.663, 142.159 55.250 C 142.559 53.359, 140.500 50.941, 136.884 49.057 C 132.144 46.586, 129.830 46.393, 130.653 48.537 C 130.977 49.383, 130.571 50.845, 129.750 51.787 C 126.457 55.565, 125.968 57.629, 127.594 60.889 C 128.922 63.550, 129.427 63.842, 131.128 62.931 C 132.220 62.347, 133.361 61.224, 133.663 60.435 C 133.966 59.646, 134.867 59, 135.666 59 C 136.577 59, 136.827 59.466, 136.338 60.250 C 135.414 61.732, 135.066 67.920, 135.913 67.827 C 136.236 67.792, 136.725 67.850, 137 67.956 C 137.275 68.062, 138.615 68.353, 139.979 68.603 C 144.495 69.431, 144.869 71.161, 140.376 70.443 C 137.905 70.049, 135.997 70.196, 135.616 70.812 C 134.944 71.900, 137.501 75, 139.071 75 C 139.582 75, 140 75.761, 140 76.691 C 140 78.204, 139.858 78.188, 138.652 76.538 C 137.910 75.524, 136.792 75.010, 136.168 75.396 C 135.528 75.792, 133.491 74.557, 131.504 72.570 C 128.714 69.781, 127.339 69.116, 124.938 69.396 C 122.277 69.705, 121.828 69.392, 121.325 66.875 C 120.739 63.947, 119.613 63.200, 118.500 65 C 118.160 65.550, 117.121 65.948, 116.191 65.884 C 114.809 65.789, 114.846 65.679, 116.395 65.283 C 117.822 64.917, 117.968 64.598, 116.986 63.991 C 115.243 62.914, 112.834 63.913, 113.698 65.355 C 114.135 66.085, 113.829 66.051, 112.850 65.259 C 112.006 64.576, 111.020 64.313, 110.658 64.675 C 110.296 65.037, 110 64.836, 110 64.229 C 110 63.621, 109.100 63.192, 108 63.275 C 106.900 63.358, 106 63.780, 106 64.213 C 106 65.929, 104.261 64.854, 102.919 62.308 C 101.248 59.138, 96 53.162, 96 54.430 C 96 54.911, 94.012 53.109, 91.582 50.424 C 89.152 47.740, 87.381 45.193, 87.645 44.765 C 87.910 44.336, 87.464 43.731, 86.654 43.421 C 85.843 43.110, 84.910 41.779, 84.580 40.463 C 84.203 38.962, 83.464 38.269, 82.595 38.602 C 81.833 38.894, 79.370 38.638, 77.122 38.033 C 73.794 37.137, 72.602 37.214, 70.717 38.450 C 68.761 39.732, 68.096 39.760, 66.450 38.630 C 65.377 37.894, 64.050 37.451, 63.500 37.646 M 40.756 46.664 C 41.447 46.943, 41.799 47.516, 41.538 47.938 C 41.277 48.360, 41.654 49.513, 42.376 50.499 C 43.625 52.207, 43.681 52.201, 43.546 50.379 C 43.357 47.809, 42.144 45.983, 40.691 46.079 C 39.839 46.135, 39.857 46.302, 40.756 46.664 M 151.195 63.500 C 151.215 65.150, 151.439 65.704, 151.693 64.731 C 151.947 63.758, 151.930 62.408, 151.656 61.731 C 151.382 61.054, 151.175 61.850, 151.195 63.500 M 196.031 76.500 C 196.031 77.050, 196.467 78.175, 197 79 C 197.533 79.825, 197.969 80.050, 197.969 79.500 C 197.969 78.950, 197.533 77.825, 197 77 C 196.467 76.175, 196.031 75.950, 196.031 76.500 M 150 79.059 C 150 79.641, 150.450 79.840, 151 79.500 C 151.550 79.160, 152 78.684, 152 78.441 C 152 78.198, 151.550 78, 151 78 C 150.450 78, 150 78.477, 150 79.059 M 137 80.095 C 137 81.394, 140.238 82.648, 143 82.419 C 144.375 82.305, 146.365 82.951, 147.422 83.856 C 148.479 84.760, 149.039 84.976, 148.666 84.335 C 148.293 83.695, 148.553 82.943, 149.244 82.664 C 150.242 82.262, 150.243 82.142, 149.250 82.079 C 148.563 82.036, 148 81.415, 148 80.700 C 148 79.799, 146.311 79.379, 142.500 79.331 C 139.475 79.292, 137 79.637, 137 80.095 M 15.638 81.500 C 16.300 83.224, 20 83.558, 20 81.893 C 20 81.284, 19.325 81.045, 18.500 81.362 C 17.675 81.678, 17 81.501, 17 80.969 C 17 80.436, 16.564 80, 16.031 80 C 15.499 80, 15.322 80.675, 15.638 81.500 M 25.158 82.902 C 24.116 83.546, 24.202 83.864, 25.559 84.384 C 27.619 85.175, 28.750 84.350, 27.425 83.025 C 26.907 82.507, 25.887 82.452, 25.158 82.902 M 49.543 88.931 C 48.941 89.904, 50.608 91.308, 52.750 91.633 C 53.438 91.738, 54 91.413, 54 90.912 C 54 90.410, 54.702 90, 55.559 90 C 56.416 90, 56.840 89.550, 56.500 89 C 55.720 87.739, 50.313 87.685, 49.543 88.931 M 186.549 90.266 C 186.826 90.988, 187.991 91.649, 189.139 91.736 C 191.498 91.913, 191.407 91.743, 188.273 90.112 C 186.494 89.187, 186.147 89.218, 186.549 90.266 M 204 100 C 203.207 100.490, 202.890 101.223, 203.296 101.629 C 203.701 102.035, 204.558 101.842, 205.200 101.200 C 206.711 99.689, 205.868 98.846, 204 100 M 194.160 104.240 C 192.754 105.646, 192.631 108, 193.965 108 C 195.311 108, 197.192 104.236, 196.163 103.601 C 195.699 103.314, 194.798 103.602, 194.160 104.240 M 200 106.500 C 200 107.325, 200.450 108, 201 108 C 201.550 108, 202 107.325, 202 106.500 C 202 105.675, 201.550 105, 201 105 C 200.450 105, 200 105.675, 200 106.500 M 86.437 107.771 C 86.779 108.112, 87.761 108.494, 88.621 108.621 C 89.480 108.747, 89.904 108.571, 89.563 108.229 C 89.221 107.888, 88.239 107.506, 87.379 107.379 C 86.520 107.253, 86.096 107.429, 86.437 107.771 M 84.603 124.833 C 84.015 125.784, 84.694 132.028, 85.470 132.803 C 85.985 133.319, 86.250 130.346, 85.750 129.654 C 85.612 129.463, 86.017 128.676, 86.650 127.904 C 87.526 126.834, 87.479 126.205, 86.453 125.260 C 85.712 124.578, 84.880 124.386, 84.603 124.833 M 234.143 127.890 C 233.309 128.419, 233.172 128.988, 233.788 129.369 C 234.340 129.710, 235.048 129.316, 235.364 128.494 C 236.026 126.767, 235.964 126.737, 234.143 127.890 M 205 130 C 205 130.550, 205.675 131, 206.500 131 C 207.325 131, 208 130.550, 208 130 C 208 129.450, 207.325 129, 206.500 129 C 205.675 129, 205 129.450, 205 130 M 98.675 148.658 C 98.313 149.020, 98.485 149.880, 99.057 150.569 C 99.778 151.437, 99.775 152.021, 99.049 152.470 C 97.474 153.443, 97.788 155, 99.559 155 C 100.483 155, 100.827 155.470, 100.405 156.155 C 99.972 156.854, 100.129 157.038, 100.802 156.622 C 101.413 156.245, 101.659 155.275, 101.349 154.468 C 101.038 153.656, 101.349 153, 102.046 153 C 102.744 153, 102.354 152.175, 101.171 151.148 C 99.997 150.130, 99.328 149.005, 99.685 148.648 C 100.042 148.292, 100.108 148, 99.833 148 C 99.558 148, 99.037 148.296, 98.675 148.658 M 167.269 162.693 C 168.242 162.947, 169.592 162.930, 170.269 162.656 C 170.946 162.382, 170.150 162.175, 168.500 162.195 C 166.850 162.215, 166.296 162.439, 167.269 162.693 M 186.643 164.698 C 185.688 165.964, 184.301 167, 183.560 167 C 182.820 167, 181.946 167.698, 181.618 168.552 C 181.277 169.442, 181.445 169.843, 182.011 169.493 C 182.555 169.157, 183 169.389, 183 170.008 C 183 171.499, 187.237 170.188, 188.300 168.369 C 188.740 167.616, 189.554 167, 190.109 167 C 190.664 167, 190.859 167.419, 190.543 167.931 C 189.941 168.904, 191.608 170.308, 193.750 170.633 C 194.438 170.738, 195 170.386, 195 169.852 C 195 169.319, 195.359 169.104, 195.798 169.375 C 196.237 169.646, 197.120 169.544, 197.760 169.148 C 199.309 168.191, 198.168 163.998, 196.531 164.627 C 195.831 164.895, 194.986 164.406, 194.654 163.540 C 193.761 161.214, 188.721 161.943, 186.643 164.698 M 206.682 171.613 C 207.236 173.056, 205.420 173.618, 204.833 172.185 C 204.650 171.737, 203.375 171.697, 202 172.096 L 199.500 172.822 201.843 173.552 C 203.701 174.131, 204.103 174.843, 203.787 176.996 C 203.462 179.215, 203.719 179.625, 205.194 179.239 C 206.405 178.922, 207 179.319, 207 180.442 C 207 181.364, 207.395 181.874, 207.877 181.576 C 208.360 181.278, 208.631 179.209, 208.479 176.979 C 208.248 173.571, 208.431 173.113, 209.626 174.105 C 211.470 175.635, 212.639 174.475, 211.110 172.632 C 209.441 170.622, 205.997 169.829, 206.682 171.613 M 194.932 173.362 C 192.888 175.258, 192.521 176.485, 192.629 181.059 C 192.833 189.599, 192.929 190.162, 194.070 189.457 C 195.909 188.320, 196.775 184.600, 195.732 182.311 C 194.967 180.633, 195.224 179.183, 196.832 176.098 C 199.278 171.405, 198.402 170.144, 194.932 173.362 M 221.500 176 C 221.840 176.550, 221.241 177, 220.170 177 C 219.098 177, 217.159 177.870, 215.861 178.934 C 214.042 180.424, 213.895 180.814, 215.221 180.630 C 216.168 180.499, 217.255 180.078, 217.638 179.696 C 218.020 179.313, 219.143 179, 220.131 179 C 221.120 179, 222.411 178.100, 223 177 C 223.862 175.389, 223.760 175, 222.476 175 C 221.599 175, 221.160 175.450, 221.500 176 M 142.813 176.683 C 143.534 176.972, 144.397 176.936, 144.729 176.604 C 145.061 176.272, 144.471 176.036, 143.417 176.079 C 142.252 176.127, 142.015 176.364, 142.813 176.683 M 213.527 182.956 C 213.202 183.482, 212.310 183.672, 211.545 183.379 C 210.767 183.080, 209.663 183.761, 209.042 184.922 C 208.430 186.065, 206.933 187.007, 205.715 187.015 C 203.922 187.028, 203.786 187.214, 205 187.992 C 206.459 188.928, 209.992 188.391, 211 187.081 C 211.275 186.723, 212.798 185.434, 214.385 184.216 C 216.290 182.753, 216.734 182, 215.694 182 C 214.827 182, 213.852 182.430, 213.527 182.956 M 220.490 193.016 C 220.144 193.575, 219.373 193.731, 218.776 193.362 C 218.161 192.981, 217.976 193.152, 218.349 193.756 C 219.186 195.110, 222.268 194.697, 222.779 193.163 C 223.256 191.733, 221.358 191.612, 220.490 193.016 M 177.750 194.662 C 178.438 194.940, 179.563 194.940, 180.250 194.662 C 180.938 194.385, 180.375 194.158, 179 194.158 C 177.625 194.158, 177.063 194.385, 177.750 194.662 M 202 198.383 C 202 198.594, 202.901 199.002, 204.001 199.290 C 205.102 199.578, 205.751 199.405, 205.442 198.907 C 204.904 198.036, 202 197.594, 202 198.383 M 165 208.558 C 168.716 209.367, 173.814 209.509, 173.371 208.791 C 173.102 208.356, 170.771 208.052, 168.191 208.116 C 165.611 208.180, 164.175 208.379, 165 208.558" stroke="none" fill="#FF0040" fill-rule="evenodd"/></svg>