<svg xmlns="http://www.w3.org/2000/svg" width="582" height="300" viewBox="0 0 582 300" version="1.1"><path d="M 338.500 56 L 335.500 56.763 338.191 56.882 C 339.671 56.947, 341.160 56.550, 341.500 56 C 341.840 55.450, 341.979 55.053, 341.809 55.118 C 341.639 55.183, 340.150 55.580, 338.500 56 M 277 252.880 C 277 253.575, 277.675 254.818, 278.500 255.643 C 280.417 257.560, 280.395 256.106, 278.468 253.559 C 277.644 252.469, 277 252.172, 277 252.880 M 278.510 265.016 C 278.856 265.575, 279.557 265.774, 280.069 265.457 C 280.581 265.141, 281 265.385, 281 266 C 281 266.615, 281.498 266.810, 282.107 266.434 C 282.878 265.957, 282.803 265.490, 281.857 264.890 C 279.977 263.699, 277.748 263.783, 278.510 265.016" stroke="none" fill="#84a4bc" fill-rule="evenodd"/><path d="M 255.952 3.898 C 254.126 5.492, 252.040 6.569, 251.316 6.291 C 250.592 6.013, 250 6.270, 250 6.862 C 250 7.453, 249.319 7.676, 248.487 7.357 C 246.480 6.587, 244 8.743, 244 11.258 C 244 13.633, 239.629 17.986, 237.198 18.032 C 235.617 18.061, 235.619 18.154, 237.233 19.379 C 238.837 20.597, 238.783 20.778, 236.502 21.817 C 234.897 22.548, 234.244 23.472, 234.627 24.470 C 234.950 25.311, 235.503 26, 235.857 26 C 236.211 26, 236.500 27.125, 236.500 28.500 C 236.500 29.875, 236.223 31, 235.884 31 C 235.546 31, 235.612 32.880, 236.033 35.178 C 236.661 38.617, 236.427 39.855, 234.710 42.178 C 233.563 43.730, 232.367 45, 232.052 45 C 231.738 45, 230.937 45.871, 230.272 46.936 C 229.204 48.646, 229.551 49.232, 233.228 51.936 C 235.519 53.621, 238.375 55, 239.575 55 C 240.774 55, 242.304 55.661, 242.975 56.469 C 244.717 58.569, 241.379 65.023, 237.536 66.986 C 233.399 69.099, 232.199 70.359, 231.439 73.389 C 230.699 76.336, 229.104 77.745, 228.138 76.305 C 227.787 75.782, 226.747 75.077, 225.828 74.738 C 224.664 74.310, 224.335 73.437, 224.745 71.866 L 225.335 69.610 223.102 71.690 C 221.204 73.458, 220.966 74.422, 221.517 78.114 C 222.272 83.175, 222.672 84, 224.369 84 C 225.058 84, 227.662 87.937, 230.157 92.750 C 236.373 104.739, 241.032 112.902, 242.002 113.501 C 242.447 113.777, 242.597 114.824, 242.334 115.829 C 241.800 117.871, 248.573 125.382, 250.098 124.439 C 250.594 124.133, 251 124.279, 251 124.764 C 251 125.249, 252.912 126.632, 255.250 127.839 C 261.019 130.815, 266.962 136.263, 267.577 139.137 C 268.386 142.922, 269.026 149.217, 268.985 153 C 268.817 168.757, 269.819 193.724, 270.712 196 C 272.068 199.459, 271.264 215.146, 269.591 217.853 C 269.263 218.384, 269.932 220.997, 271.078 223.660 C 272.475 226.901, 272.981 229.641, 272.611 231.954 C 272.228 234.355, 272.555 235.956, 273.685 237.204 C 274.697 238.323, 274.867 239, 274.136 239 C 273.365 239, 273.184 239.944, 273.610 241.750 C 274.506 245.550, 275.860 246.842, 277.010 244.992 C 277.587 244.062, 277.571 243.374, 276.968 243.167 C 275.727 242.739, 275.694 238, 276.933 238 C 278.179 238, 279.438 241.938, 279.108 244.803 C 278.962 246.070, 279.303 247.660, 279.864 248.336 C 280.506 249.110, 280.541 250.112, 279.958 251.034 C 279.167 252.284, 279.028 252.261, 279.015 250.872 C 279.007 249.977, 278.421 248.765, 277.714 248.178 C 275.648 246.463, 276.087 251.145, 278.207 253.439 C 279.193 254.505, 279.993 255.855, 279.985 256.439 C 279.976 257.022, 279.577 256.880, 279.096 256.122 C 278.616 255.364, 277.716 255.058, 277.095 255.441 C 276.475 255.824, 276.207 256.526, 276.500 257 C 276.793 257.474, 276.575 258.144, 276.016 258.490 C 274.422 259.475, 274.828 261.280, 276.500 260.638 C 278.531 259.859, 281.143 260.959, 280.341 262.256 C 279.986 262.832, 280.465 263.867, 281.407 264.556 C 282.497 265.353, 282.734 266.046, 282.060 266.463 C 281.477 266.823, 281 266.716, 281 266.226 C 281 265.735, 280.325 265.333, 279.500 265.333 C 277.287 265.333, 277.676 268.167, 280.280 271.010 C 281.534 272.380, 282.390 274.341, 282.184 275.368 C 281.950 276.532, 282.221 276.981, 282.904 276.559 C 283.507 276.187, 284 274.709, 284 273.274 C 284 270.316, 284.857 270.659, 285.474 273.865 C 285.700 275.039, 285.434 276, 284.884 276 C 284.326 276, 284.234 276.554, 284.676 277.250 C 285.112 277.938, 285.498 278.725, 285.534 279 C 285.800 281.065, 287.308 284, 288.103 284 C 288.703 284, 288.677 283.266, 288.035 282.066 C 286.653 279.482, 286.726 279, 288.500 279 C 289.325 279, 289.947 279.337, 289.882 279.750 C 289.816 280.163, 289.873 280.837, 290.007 281.250 C 290.500 282.771, 290.753 284.040, 290.875 285.608 C 290.968 286.805, 291.633 287.058, 293.473 286.596 C 295.409 286.110, 295.821 286.303, 295.369 287.482 C 295.051 288.311, 294.275 288.733, 293.645 288.420 C 293.015 288.107, 293.395 288.576, 294.488 289.460 C 296.325 290.946, 296.583 290.933, 297.873 289.284 C 299.106 287.708, 299.201 287.698, 298.686 289.199 C 298.298 290.328, 298.756 291.105, 300.051 291.516 C 301.123 291.856, 302 292.581, 302 293.126 C 302 293.672, 302.518 293.798, 303.152 293.406 C 303.786 293.014, 304.927 293.547, 305.691 294.592 C 306.890 296.232, 307.212 296.287, 308.058 294.995 C 308.913 293.691, 309.208 293.721, 310.368 295.234 C 311.099 296.188, 311.980 296.687, 312.325 296.342 C 312.670 295.997, 313.724 296.342, 314.668 297.107 C 315.612 297.873, 316.102 298.028, 315.757 297.450 C 315.412 296.873, 316.047 295.827, 317.169 295.126 C 318.846 294.079, 319.067 294.088, 318.413 295.176 C 317.768 296.247, 317.910 296.263, 319.150 295.259 C 319.994 294.576, 320.980 294.313, 321.342 294.675 C 321.704 295.037, 322 294.852, 322 294.264 C 322 293.677, 320.651 292.725, 319.002 292.151 C 317.354 291.576, 314.541 289.734, 312.752 288.057 C 310.964 286.381, 308.964 285.007, 308.309 285.005 C 307.654 285.002, 306.833 284.539, 306.485 283.975 C 306.136 283.412, 306.222 283.015, 306.676 283.094 C 309.010 283.499, 309.275 282.774, 307.356 281.228 C 304.431 278.870, 303.390 275.171, 305.431 274.388 C 306.294 274.057, 307 272.851, 307 271.707 C 307 270.564, 307.942 268.626, 309.094 267.400 C 311.856 264.459, 310.893 261.429, 306.946 260.639 C 303.196 259.889, 301.350 256.111, 303.842 254.284 C 307.685 251.466, 308.106 250.758, 307.521 248.095 C 307.039 245.903, 307.399 245.124, 309.382 244.063 C 310.845 243.280, 311.620 242.174, 311.297 241.331 C 310.670 239.697, 308.375 240.187, 308.750 241.875 C 309.359 244.618, 307.343 242.605, 305.798 238.929 L 304.097 234.879 308.534 235.367 C 313.158 235.876, 314.925 234.820, 313.110 232.632 C 312.352 231.719, 312.399 230.979, 313.274 230.051 C 314.243 229.023, 314.238 228.654, 313.250 228.292 C 311.133 227.515, 311.870 225.993, 314.191 226.347 C 315.396 226.531, 318.844 225.951, 321.852 225.058 C 326.703 223.618, 327.465 223.020, 328.587 219.778 C 329.646 216.720, 329.620 215.929, 328.426 214.939 C 327.642 214.288, 327 212.921, 327 211.901 C 327 210.881, 325.875 209.309, 324.500 208.408 C 323.125 207.507, 322.007 206.259, 322.015 205.635 C 322.024 204.968, 322.390 205.068, 322.904 205.878 C 323.384 206.636, 324.210 206.988, 324.741 206.660 C 325.271 206.332, 326.559 206.710, 327.603 207.500 C 330.136 209.418, 335.478 209.379, 337.429 207.428 C 338.418 206.439, 338.810 204.862, 338.486 203.178 C 338.115 201.254, 338.198 201.020, 338.782 202.347 C 339.520 204.025, 339.716 204.047, 340.920 202.597 C 342.004 201.290, 342.010 200.717, 340.953 199.444 C 340.243 198.588, 340.075 198.025, 340.581 198.194 C 341.086 198.362, 341.695 198.050, 341.933 197.500 C 342.171 196.950, 343.373 195.708, 344.604 194.739 C 345.836 193.771, 347.628 190.846, 348.588 188.239 C 349.548 185.633, 351.208 182.518, 352.278 181.317 C 353.991 179.394, 354.109 178.477, 353.269 173.604 L 352.316 168.074 356.195 164.037 C 358.329 161.817, 360.739 160, 361.551 160 C 362.909 160, 366.819 158.181, 368 157 C 368.275 156.725, 370.210 156.365, 372.299 156.201 C 376.358 155.881, 379.293 153.642, 379.830 150.457 C 380.011 149.381, 380.984 146.700, 381.990 144.500 C 384.023 140.058, 386.258 128.144, 385.930 123.500 C 385.471 117.003, 386.027 110.494, 386.920 111.905 C 387.586 112.957, 388.313 112.202, 389.823 108.889 C 390.930 106.458, 393.011 103.125, 394.447 101.484 C 398.498 96.852, 399.495 95.591, 399.556 95.025 C 399.588 94.736, 399.971 92.992, 400.408 91.149 C 401.396 86.986, 399.394 79.281, 396.990 77.995 C 396.040 77.486, 394.993 77.340, 394.663 77.671 C 393.855 78.478, 389.431 75.498, 385.287 71.353 C 382.314 68.380, 381.322 67.987, 377.166 68.134 C 374.563 68.226, 371.468 67.786, 370.289 67.155 C 369.110 66.523, 367.471 66.266, 366.647 66.582 C 365.721 66.937, 364.500 66.166, 363.450 64.563 C 362.515 63.137, 361.244 62.075, 360.625 62.204 C 360.006 62.333, 358.247 61.603, 356.715 60.581 C 355.183 59.559, 352.933 58.647, 351.715 58.554 C 349.210 58.362, 346.766 59.813, 347.526 61.041 C 348.120 62.003, 344.122 63.455, 343.258 62.591 C 342.933 62.266, 343.308 62, 344.093 62 C 345.877 62, 348.291 58.280, 347.421 56.872 C 347.065 56.297, 345.964 56.038, 344.973 56.297 C 343.045 56.801, 341.830 54.520, 341.617 50 C 341.547 48.495, 340.973 47.609, 340.176 47.775 C 339.447 47.926, 339.057 47.701, 339.308 47.275 C 339.560 46.849, 339.307 45.375, 338.746 44 C 338.186 42.625, 337.642 40.756, 337.538 39.847 C 337.281 37.604, 331.815 32.275, 328.334 30.874 C 326.775 30.246, 323.178 29.667, 320.340 29.586 C 316.331 29.471, 314.447 28.832, 311.897 26.719 C 310.091 25.224, 308.944 24, 309.348 24 C 310.933 24, 305.030 18.668, 303.305 18.541 C 300.100 18.305, 298.748 17.008, 300.060 15.428 C 300.985 14.313, 300.681 13.829, 298.544 13.017 C 297.073 12.457, 295.449 12, 294.935 12 C 294.421 12, 294 11.298, 294 10.441 C 294 9.584, 294.419 9.141, 294.931 9.457 C 295.443 9.774, 296.124 9.609, 296.444 9.090 C 297.383 7.572, 289.497 8.538, 287.068 10.240 C 284.824 11.811, 281 11.539, 281 9.807 C 281 9.279, 279.207 8.977, 277.015 9.135 C 274.824 9.293, 273.136 9.172, 273.265 8.865 C 273.819 7.549, 270.483 4.902, 268.820 5.337 C 267.530 5.674, 267 5.258, 267 3.906 C 267 1.235, 265.208 1.518, 264.820 4.250 C 264.644 5.488, 264.050 6.432, 263.500 6.349 C 262.950 6.265, 261.762 6.592, 260.860 7.075 C 259.635 7.731, 259.089 7.447, 258.698 5.952 C 258.373 4.711, 258.627 4.056, 259.367 4.226 C 260.556 4.499, 261 3.894, 261 2 C 261 0.287, 259.398 0.889, 255.952 3.898 M 258.636 11.506 C 257.903 13.415, 258.930 16.161, 260.105 15.435 C 260.597 15.131, 261 14.035, 261 13 C 261 10.581, 259.383 9.559, 258.636 11.506 M 337.212 55.964 C 336.208 56.720, 336.173 61.011, 337.176 60.391 C 337.629 60.111, 338 59.234, 338 58.441 C 338 57.648, 338.648 57, 339.441 57 C 340.234 57, 341.100 56.646, 341.368 56.214 C 341.909 55.338, 338.331 55.123, 337.212 55.964 M 268 123.623 C 268 124.136, 268.900 125.326, 270 126.268 C 271.100 127.210, 272 127.605, 272 127.145 C 272 126.686, 271.100 125.495, 270 124.500 C 268.900 123.505, 268 123.110, 268 123.623 M 345 189.500 C 344.315 190.325, 344.105 191, 344.533 191 C 344.960 191, 344.453 191.966, 343.405 193.146 C 342.345 194.341, 342.077 195.109, 342.801 194.879 C 344.450 194.355, 348.533 188, 347.221 188 C 346.684 188, 345.685 188.675, 345 189.500 M 302.266 286.688 C 302.421 288.942, 305.551 290.536, 306.573 288.881 C 306.890 288.369, 306.697 288.074, 306.145 288.225 C 305.593 288.376, 304.461 287.600, 303.629 286.500 C 302.132 284.520, 302.118 284.522, 302.266 286.688" stroke="none" fill="#0095FF" fill-rule="evenodd"/></svg>